<?xml version="1.0" encoding="UTF-8"?>
<svg version="1.1" xmlns="http://www.w3.org/2000/svg" width="1550" height="861">
<path d="M0 0 C0 0.66 0 1.32 0 2 C0.763125 2.144375 1.52625 2.28875 2.3125 2.4375 C5 3 5 3 8 4 C8 4.66 8 5.32 8 6 C8.66 6 9.32 6 10 6 C10 6.66 10 7.32 10 8 C10.55717995 8.23230314 11.1143599 8.46460628 11.6884241 8.70394891 C14.60837756 10.34110426 16.61659728 12.36735375 18.98521447 14.73681748 C19.72203168 15.46980043 19.72203168 15.46980043 20.47373408 16.21759111 C22.12872447 17.866426 23.77645626 19.52233047 25.42435074 21.17825508 C26.62238647 22.37481218 27.82086091 23.57093015 29.01973546 24.7666468 C32.33317769 28.07392805 35.64031284 31.38745535 38.94650977 34.70197738 C42.53677815 38.29909424 46.1328265 41.89042473 49.72816253 45.48247516 C56.0352722 51.78542981 62.33864097 58.09210652 68.63961029 64.40119934 C78.00900926 73.78264429 87.38411132 83.15837422 96.76041377 92.53291884 C112.53095425 108.30082839 128.29683387 124.0733913 144.06006622 139.84860611 C159.6733798 155.47375984 175.28875719 171.0968463 190.90691376 186.71715927 C191.39174093 187.20205527 191.87656811 187.68695127 192.37608702 188.18654109 C196.8041607 192.61524116 201.23225989 197.04391573 205.66038969 201.47255971 C216.66880548 212.48225439 227.67690133 223.49226894 238.68478012 234.50250053 C239.43673785 235.25461822 239.43673785 235.25461822 240.20388665 236.0219302 C264.59649022 260.41977831 288.98540705 284.82131087 313.37402344 309.22314453 C321.83867108 317.69237545 330.30333502 326.16159009 338.76806641 334.6307373 C339.29304143 335.15598622 339.81801645 335.68123514 340.3588998 336.22240069 C364.75831073 360.63449702 389.16033803 385.04397738 413.5630417 409.45278219 C415.14705403 411.03719064 416.73106522 412.62160023 418.31507619 414.20601004 C428.81229751 424.70587089 439.30956394 435.20568663 449.80686059 445.70547216 C470.69432879 466.59789352 491.58153185 487.49057994 512.46855279 508.38344845 C513.46327369 509.37844783 514.45799477 510.37344702 515.45271605 511.36844603 C576.80647095 572.7393358 638.15444105 634.11600784 714 710 C717.74966551 708.4367979 720.12739993 706.12118144 722.98291314 703.26318252 C723.71935765 702.53019957 723.71935765 702.53019957 724.47067983 701.78240889 C726.12483026 700.13357565 727.77171541 698.47767007 729.41876411 696.82174492 C730.61619383 695.62518727 731.81406306 694.42906932 733.0123331 693.2333532 C736.32410902 689.92607015 739.62957541 686.61254178 742.93410704 683.29802262 C746.52258756 679.7008969 750.11686197 676.10956867 753.71042812 672.51752484 C760.01446484 666.21455637 766.31477362 659.90788053 772.61269379 653.59880066 C781.97761876 644.21732791 791.34826716 634.84158791 800.72016463 625.46708116 C815.99931415 610.18340022 831.27436632 594.89563025 846.54679906 579.60523803 C862.63811086 563.49500518 878.73180248 547.38715604 894.82903671 531.28284073 C895.3137184 530.79794473 895.79840009 530.31304873 896.2977691 529.81345891 C901.71317647 524.39566953 907.12866289 518.97795917 912.54418169 513.56028117 C922.56086097 503.53960252 932.57720769 493.51859147 942.59347343 483.49749947 C943.09464466 482.99608767 943.59581589 482.49467588 944.11217413 481.9780698 C967.97084218 458.10791661 991.82647842 434.2347343 1015.68141745 410.36085454 C1017.26454958 408.77646574 1018.84768321 407.19207844 1020.43081719 405.60769149 C1036.32900169 389.69691779 1052.22701789 373.78597593 1068.125 357.875 C1084.55425315 341.43231909 1100.98355276 324.98968461 1117.41302019 308.54721781 C1118.99617511 306.96280959 1120.57932851 305.37839986 1122.16248175 303.79398996 C1146.00014895 279.9374223 1169.83871642 256.08175514 1193.68011284 232.22891426 C1194.43127985 231.47738528 1194.43127985 231.47738528 1195.19762196 230.71067391 C1205.2015117 220.70197202 1215.20553317 210.69340182 1225.20983436 200.68511119 C1230.61947875 195.27330759 1236.029067 189.86144787 1241.43859482 184.44952774 C1241.92257415 183.96533547 1242.40655349 183.4811432 1242.90519886 182.98227844 C1258.99886844 166.88145542 1275.08853343 150.77663674 1291.17632134 134.669937 C1306.83736882 118.99051888 1322.5018509 103.31453783 1338.16990389 87.64211975 C1347.49090379 78.31828032 1356.80903155 68.99159084 1366.12320219 59.66092913 C1372.33320358 53.44046834 1378.54676659 47.22358093 1384.76331833 41.00966638 C1388.31295471 37.46132054 1391.86092806 33.91135179 1395.40457131 30.35701989 C1398.62116864 27.13077656 1401.84223638 23.9090714 1405.06710564 20.69109706 C1406.23254364 19.52650932 1407.39626614 18.36020196 1408.55815762 17.19207589 C1410.12350226 15.61880676 1411.69476248 14.05170558 1413.26778519 12.48611915 C1414.57621206 11.17655313 1414.57621206 11.17655313 1415.91107178 9.84053122 C1418 8 1418 8 1420 8 C1420 7.34 1420 6.68 1420 6 C1420.66 6 1421.32 6 1422 6 C1422 5.34 1422 4.68 1422 4 C1425.08809695 2.23537317 1426.23312136 2 1430 2 C1430 1.34 1430 0.68 1430 0 C1445.74487472 -0.738041 1445.74487472 -0.738041 1453 4 C1453 4.66 1453 5.32 1453 6 C1453.66 6 1454.32 6 1455 6 C1455 6.66 1455 7.32 1455 8 C1455.66 8 1456.32 8 1457 8 C1457 8.66 1457 9.32 1457 10 C1457.66 10 1458.32 10 1459 10 C1459 10.99 1459 11.98 1459 13 C1459.66 13 1460.32 13 1461 13 C1463.57218521 19.8523014 1464.50238314 27.43615688 1462.171875 34.515625 C1460.68789185 37.5057403 1458.84980088 40.22529868 1457 43 C1456.34 43 1455.68 43 1455 43 C1455 43.66 1455 44.32 1455 45 C1453.64453125 46.33203125 1453.64453125 46.33203125 1451.8125 47.8125 C1447.89066409 51.07015402 1444.24488931 54.3816439 1441.125 58.4375 C1438.86842716 61.15866136 1436.43782796 63.26868968 1433.734375 65.52734375 C1430.53825929 68.24116272 1427.68094819 71.11476735 1425.125 74.4375 C1422.86842716 77.15866136 1420.43782796 79.26868968 1417.734375 81.52734375 C1414.56194832 84.22104838 1411.71232192 87.06661265 1409.1875 90.375 C1406.73023163 93.32372204 1404.0263089 95.68756466 1401.09765625 98.15625 C1398.61865449 100.33518637 1396.31769812 102.65045565 1394 105 C1384 115 1384 115 1381.3046875 117.66015625 C1378.97407725 119.93128632 1378.97407725 119.93128632 1377.125 122.4375 C1374.86842716 125.15866136 1372.43782796 127.26868968 1369.734375 129.52734375 C1366.53825929 132.24116272 1363.68094819 135.11476735 1361.125 138.4375 C1358.86842716 141.15866136 1356.43782796 143.26868968 1353.734375 145.52734375 C1350.53825929 148.24116272 1347.68094819 151.11476735 1345.125 154.4375 C1342.86842716 157.15866136 1340.43782796 159.26868968 1337.734375 161.52734375 C1334.53825929 164.24116272 1331.68094819 167.11476735 1329.125 170.4375 C1326.86503832 173.1627479 1324.42880311 175.27532182 1321.72265625 177.5390625 C1317.9763404 180.71621019 1314.74848589 184.27720686 1311.5625 188 C1308.602125 191.42273291 1305.52113478 194.16778289 1302 197 C1299.33384157 199.53610192 1296.93963757 202.07465879 1294.625 204.9375 C1292.25499828 207.84410589 1289.57462617 210.1673667 1286.69921875 212.5625 C1283.51104588 215.25962096 1280.67028906 218.12862423 1278.125 221.4375 C1275.86842716 224.15866136 1273.43782796 226.26868968 1270.734375 228.52734375 C1267.53825929 231.24116272 1264.68094819 234.11476735 1262.125 237.4375 C1259.86842716 240.15866136 1257.43782796 242.26868968 1254.734375 244.52734375 C1251.53825929 247.24116272 1248.68094819 250.11476735 1246.125 253.4375 C1243.86503832 256.1627479 1241.42880311 258.27532182 1238.72265625 260.5390625 C1234.9763404 263.71621019 1231.74848589 267.27720686 1228.5625 271 C1225.602125 274.42273291 1222.52113478 277.16778289 1219 280 C1216.33384157 282.53610192 1213.93963757 285.07465879 1211.625 287.9375 C1209.25499828 290.84410589 1206.57462617 293.1673667 1203.69921875 295.5625 C1200.51104588 298.25962096 1197.67028906 301.12862423 1195.125 304.4375 C1192.86842716 307.15866136 1190.43782796 309.26868968 1187.734375 311.52734375 C1184.53825929 314.24116272 1181.68094819 317.11476735 1179.125 320.4375 C1176.81082562 323.22812204 1174.29472177 325.39036499 1171.48828125 327.66796875 C1169.87117455 328.95079945 1169.87117455 328.95079945 1169 331 C1168.34 331 1167.68 331 1167 331 C1167 331.66 1167 332.32 1167 333 C1165.64453125 334.33203125 1165.64453125 334.33203125 1163.8125 335.8125 C1159.69738743 339.23210058 1155.99730869 342.76648663 1152.625 346.9375 C1150.25499828 349.84410589 1147.57462617 352.1673667 1144.69921875 354.5625 C1141.51104588 357.25962096 1138.67028906 360.12862423 1136.125 363.4375 C1133.86842716 366.15866136 1131.43782796 368.26868968 1128.734375 370.52734375 C1125.53825929 373.24116272 1122.68094819 376.11476735 1120.125 379.4375 C1117.86842716 382.15866136 1115.43782796 384.26868968 1112.734375 386.52734375 C1109.40314188 389.35589079 1106.4936263 392.36533761 1103.8125 395.8125 C1103.214375 396.534375 1102.61625 397.25625 1102 398 C1101.34 398 1100.68 398 1100 398 C1100 398.66 1100 399.32 1100 400 C1098.64453125 401.33203125 1098.64453125 401.33203125 1096.8125 402.8125 C1092.69738743 406.23210058 1088.99730869 409.76648663 1085.625 413.9375 C1083.25499828 416.84410589 1080.57462617 419.1673667 1077.69921875 421.5625 C1074.51104588 424.25962096 1071.67028906 427.12862423 1069.125 430.4375 C1066.86842716 433.15866136 1064.43782796 435.26868968 1061.734375 437.52734375 C1058.53825929 440.24116272 1055.68094819 443.11476735 1053.125 446.4375 C1050.86842716 449.15866136 1048.43782796 451.26868968 1045.734375 453.52734375 C1042.40314188 456.35589079 1039.4936263 459.36533761 1036.8125 462.8125 C1036.214375 463.534375 1035.61625 464.25625 1035 465 C1034.34 465 1033.68 465 1033 465 C1033 465.66 1033 466.32 1033 467 C1031.64453125 468.33203125 1031.64453125 468.33203125 1029.8125 469.8125 C1025.69738743 473.23210058 1021.99730869 476.76648663 1018.625 480.9375 C1016.25499828 483.84410589 1013.57462617 486.1673667 1010.69921875 488.5625 C1007.51104588 491.25962096 1004.67028906 494.12862423 1002.125 497.4375 C999.86842716 500.15866136 997.43782796 502.26868968 994.734375 504.52734375 C991.53825929 507.24116272 988.68094819 510.11476735 986.125 513.4375 C983.86842716 516.15866136 981.43782796 518.26868968 978.734375 520.52734375 C975.53825929 523.24116272 972.68094819 526.11476735 970.125 529.4375 C967.86842716 532.15866136 965.43782796 534.26868968 962.734375 536.52734375 C959.56194832 539.22104838 956.71232192 542.06661265 954.1875 545.375 C951.68612573 548.37664912 948.90877006 550.77417872 945.94921875 553.3125 C942.35004845 556.42841497 939.1629564 559.7839577 936.125 563.4375 C933.54095438 566.49982656 930.74154098 569.04212897 927.6640625 571.59765625 C924.48369825 574.27782237 921.65957957 577.14254656 919.125 580.4375 C916.86842716 583.15866136 914.43782796 585.26868968 911.734375 587.52734375 C908.53825929 590.24116272 905.68094819 593.11476735 903.125 596.4375 C900.86842716 599.15866136 898.43782796 601.26868968 895.734375 603.52734375 C892.53825929 606.24116272 889.68094819 609.11476735 887.125 612.4375 C884.86842716 615.15866136 882.43782796 617.26868968 879.734375 619.52734375 C876.53825929 622.24116272 873.68094819 625.11476735 871.125 628.4375 C868.86842716 631.15866136 866.43782796 633.26868968 863.734375 635.52734375 C860.53825929 638.24116272 857.68094819 641.11476735 855.125 644.4375 C852.86842716 647.15866136 850.43782796 649.26868968 847.734375 651.52734375 C844.53825929 654.24116272 841.68094819 657.11476735 839.125 660.4375 C836.86842716 663.15866136 834.43782796 665.26868968 831.734375 667.52734375 C828.53825929 670.24116272 825.68094819 673.11476735 823.125 676.4375 C820.86842716 679.15866136 818.43782796 681.26868968 815.734375 683.52734375 C812.53825929 686.24116272 809.68094819 689.11476735 807.125 692.4375 C804.86842716 695.15866136 802.43782796 697.26868968 799.734375 699.52734375 C796.53825929 702.24116272 793.68094819 705.11476735 791.125 708.4375 C788.86842716 711.15866136 786.43782796 713.26868968 783.734375 715.52734375 C780.53825929 718.24116272 777.68094819 721.11476735 775.125 724.4375 C772.86503832 727.1627479 770.42880311 729.27532182 767.72265625 731.5390625 C763.99832809 734.69756303 760.78811409 738.23314195 757.625 741.9375 C754.83789724 745.16084493 751.90588651 747.92315177 748.625 750.6328125 C745.45223257 753.30220818 742.63837852 756.34388875 739.75 759.3125 C737.36441301 761.6438691 734.95797351 763.93300112 732.5 766.1875 C731.40171875 767.19876953 731.40171875 767.19876953 730.28125 768.23046875 C723.50305994 773.48820864 715.13813602 772.64614346 707 772 C698.162972 769.73305119 691.51102358 761.85154283 686 755 C683.48393905 752.35491029 680.97082234 749.97653101 678.125 747.6875 C674.9224848 745.07773826 672.33597799 742.05019467 669.65625 738.91796875 C666.69919161 735.49363934 663.57952433 732.46855158 660.0625 729.625 C657.15589411 727.25499828 654.8326333 724.57462617 652.4375 721.69921875 C649.74037904 718.51104588 646.87137577 715.67028906 643.5625 713.125 C640.84133864 710.86842716 638.73131032 708.43782796 636.47265625 705.734375 C633.75883728 702.53825929 630.88523265 699.68094819 627.5625 697.125 C624.84133864 694.86842716 622.73131032 692.43782796 620.47265625 689.734375 C617.75883728 686.53825929 614.88523265 683.68094819 611.5625 681.125 C608.84133864 678.86842716 606.73131032 676.43782796 604.47265625 673.734375 C601.75883728 670.53825929 598.88523265 667.68094819 595.5625 665.125 C592.84133864 662.86842716 590.73131032 660.43782796 588.47265625 657.734375 C585.75883728 654.53825929 582.88523265 651.68094819 579.5625 649.125 C576.84133864 646.86842716 574.73131032 644.43782796 572.47265625 641.734375 C569.75883728 638.53825929 566.88523265 635.68094819 563.5625 633.125 C560.84133864 630.86842716 558.73131032 628.43782796 556.47265625 625.734375 C553.75883728 622.53825929 550.88523265 619.68094819 547.5625 617.125 C544.84133864 614.86842716 542.73131032 612.43782796 540.47265625 609.734375 C537.75883728 606.53825929 534.88523265 603.68094819 531.5625 601.125 C528.84133864 598.86842716 526.73131032 596.43782796 524.47265625 593.734375 C521.75883728 590.53825929 518.88523265 587.68094819 515.5625 585.125 C512.84133864 582.86842716 510.73131032 580.43782796 508.47265625 577.734375 C505.75883728 574.53825929 502.88523265 571.68094819 499.5625 569.125 C496.8372521 566.86503832 494.72467818 564.42880311 492.4609375 561.72265625 C489.30243697 557.99832809 485.76685805 554.78811409 482.0625 551.625 C478.84004354 548.83866547 476.07956703 545.90575395 473.3671875 542.62890625 C470.70425367 539.4562108 467.84345871 536.64881439 464.5625 534.125 C461.84133864 531.86842716 459.73131032 529.43782796 457.47265625 526.734375 C454.75883728 523.53825929 451.88523265 520.68094819 448.5625 518.125 C445.84133864 515.86842716 443.73131032 513.43782796 441.47265625 510.734375 C438.75883728 507.53825929 435.88523265 504.68094819 432.5625 502.125 C429.84133864 499.86842716 427.73131032 497.43782796 425.47265625 494.734375 C422.75883728 491.53825929 419.88523265 488.68094819 416.5625 486.125 C413.83997619 483.86729732 411.72910167 481.43481806 409.46875 478.73046875 C406.49956797 475.23220375 403.2564643 472.17937297 399.6875 469.3125 C398.800625 468.549375 397.91375 467.78625 397 467 C397 466.34 397 465.68 397 465 C396.34 465 395.68 465 395 465 C393.66796875 463.64453125 393.66796875 463.64453125 392.1875 461.8125 C388.92984598 457.89066409 385.6183561 454.24488931 381.5625 451.125 C378.84133864 448.86842716 376.73131032 446.43782796 374.47265625 443.734375 C371.75883728 440.53825929 368.88523265 437.68094819 365.5625 435.125 C362.84133864 432.86842716 360.73131032 430.43782796 358.47265625 427.734375 C355.75883728 424.53825929 352.88523265 421.68094819 349.5625 419.125 C346.83997619 416.86729732 344.72910167 414.43481806 342.46875 411.73046875 C339.49956797 408.23220375 336.2564643 405.17937297 332.6875 402.3125 C331.800625 401.549375 330.91375 400.78625 330 400 C330 399.34 330 398.68 330 398 C329.34 398 328.68 398 328 398 C326.66796875 396.64453125 326.66796875 396.64453125 325.1875 394.8125 C321.92984598 390.89066409 318.6183561 387.24488931 314.5625 384.125 C311.84133864 381.86842716 309.73131032 379.43782796 307.47265625 376.734375 C304.75883728 373.53825929 301.88523265 370.68094819 298.5625 368.125 C295.83997619 365.86729732 293.72910167 363.43481806 291.46875 360.73046875 C288.58077132 357.32787685 285.46074033 354.37435152 282 351.5625 C278.92096119 348.93248768 276.54921599 346.1374966 274 343 C271.36259973 340.22734843 268.66631942 337.70394658 265.6875 335.3125 C264.800625 334.549375 263.91375 333.78625 263 333 C263 332.34 263 331.68 263 331 C262.34 331 261.68 331 261 331 C259.66796875 329.64453125 259.66796875 329.64453125 258.1875 327.8125 C254.92984598 323.89066409 251.6183561 320.24488931 247.5625 317.125 C244.84133864 314.86842716 242.73131032 312.43782796 240.47265625 309.734375 C237.75883728 306.53825929 234.88523265 303.68094819 231.5625 301.125 C228.83997619 298.86729732 226.72910167 296.43481806 224.46875 293.73046875 C221.58077132 290.32787685 218.46074033 287.37435152 215 284.5625 C211.92096119 281.93248768 209.54921599 279.1374966 207 276 C204.16568746 273.01248138 201.19057629 270.29516398 198.0625 267.625 C194.84004354 264.83866547 192.07956703 261.90575395 189.3671875 258.62890625 C186.70425367 255.4562108 183.84345871 252.64881439 180.5625 250.125 C177.84133864 247.86842716 175.73131032 245.43782796 173.47265625 242.734375 C170.75883728 239.53825929 167.88523265 236.68094819 164.5625 234.125 C161.84133864 231.86842716 159.73131032 229.43782796 157.47265625 226.734375 C154.75883728 223.53825929 151.88523265 220.68094819 148.5625 218.125 C145.83997619 215.86729732 143.72910167 213.43481806 141.46875 210.73046875 C138.58077132 207.32787685 135.46074033 204.37435152 132 201.5625 C128.92096119 198.93248768 126.54921599 196.1374966 124 193 C121.16568746 190.01248138 118.19057629 187.29516398 115.0625 184.625 C111.84004354 181.83866547 109.07956703 178.90575395 106.3671875 175.62890625 C103.70425367 172.4562108 100.84345871 169.64881439 97.5625 167.125 C94.84133864 164.86842716 92.73131032 162.43782796 90.47265625 159.734375 C87.75883728 156.53825929 84.88523265 153.68094819 81.5625 151.125 C78.84133864 148.86842716 76.73131032 146.43782796 74.47265625 143.734375 C71.75883728 140.53825929 68.88523265 137.68094819 65.5625 135.125 C62.84133864 132.86842716 60.73131032 130.43782796 58.47265625 127.734375 C55.77895162 124.56194832 52.93338735 121.71232192 49.625 119.1875 C47.31928887 117.26607405 45.55860135 115.39957123 43.625 113.125 C41.3905766 110.50366346 39.16208072 108.18457745 36.5 106 C33.1597643 103.2514204 30.42493571 100.1674915 27.62109375 96.8828125 C24.680009 93.46690202 21.56609171 90.45769117 18.0625 87.625 C15.15589411 85.25499828 12.8326333 82.57462617 10.4375 79.69921875 C7.74037904 76.51104588 4.87137577 73.67028906 1.5625 71.125 C-1.15866136 68.86842716 -3.26868968 66.43782796 -5.52734375 63.734375 C-8.24116272 60.53825929 -11.11476735 57.68094819 -14.4375 55.125 C-17.22812204 52.81082562 -19.39036499 50.29472177 -21.66796875 47.48828125 C-22.95079945 45.87117455 -22.95079945 45.87117455 -25 45 C-25 44.34 -25 43.68 -25 43 C-25.66 43 -26.32 43 -27 43 C-31.28300556 37.24471128 -33.28385098 32.74737137 -33.25 25.5625 C-33.25515625 24.47066406 -33.2603125 23.37882812 -33.265625 22.25390625 C-32.99044769 18.88298422 -32.19775781 16.15124375 -31 13 C-30.34 13 -29.68 13 -29 13 C-29 12.01 -29 11.02 -29 10 C-28.34 10 -27.68 10 -27 10 C-27 9.34 -27 8.68 -27 8 C-26.34 8 -25.68 8 -25 8 C-25 7.34 -25 6.68 -25 6 C-24.34 6 -23.68 6 -23 6 C-23 5.34 -23 4.68 -23 4 C-15.58521483 -0.84230868 -8.5168236 -0.39922611 0 0 Z " fill="#000000" transform="translate(60,37)"/>
</svg>
