<?xml version="1.0" encoding="UTF-8" standalone="no"?>
<svg
   version="1.1"
   width="1300"
   height="1250"
   id="svg108"
   sodipodi:docname="scale.svg"
   inkscape:version="1.4.2 (ebf0e940d0, 2025-05-08)"
   xmlns:inkscape="http://www.inkscape.org/namespaces/inkscape"
   xmlns:sodipodi="http://sodipodi.sourceforge.net/DTD/sodipodi-0.dtd"
   xmlns="http://www.w3.org/2000/svg"
   xmlns:svg="http://www.w3.org/2000/svg">
  <defs
     id="defs108" />
  <sodipodi:namedview
     id="namedview108"
     pagecolor="#ffffff"
     bordercolor="#000000"
     borderopacity="0.25"
     inkscape:showpageshadow="2"
     inkscape:pageopacity="0.0"
     inkscape:pagecheckerboard="0"
     inkscape:deskcolor="#d1d1d1"
     inkscape:zoom="0.44636116"
     inkscape:cx="803.16128"
     inkscape:cy="799.80077"
     inkscape:window-width="2560"
     inkscape:window-height="1368"
     inkscape:window-x="0"
     inkscape:window-y="0"
     inkscape:window-maximized="1"
     inkscape:current-layer="svg108" />
  <g
     id="g108"
     transform="matrix(0.87514875,0,0,0.87514875,-240.59076,-272.7967)">
    <path
       d="m 980.5,1412.5 c 3.5,0.5 3.5,0.5 5.5,2.125 1.33137,3.162 0.65511,5.034 0,8.375 0.26444,2.3421 0.58245,4.6803 1,7 -1.5625,1.5625 -1.5625,1.5625 -4,3 -6.32727,-0.3273 -6.32727,-0.3273 -9,-3 -0.33333,-5.3333 -0.33333,-5.3333 1,-8 -0.20625,-0.7837 -0.4125,-1.5675 -0.625,-2.375 C 974,1417 974,1417 975,1414.6875 977,1413 977,1413 980.5,1412.5 Z m -2.5,3.5 c -0.5907,1.946 -0.5907,1.946 -1,4 1.06645,1.2963 1.06645,1.2963 3.5625,1.0625 0.80438,-0.021 1.60875,-0.041 2.4375,-0.062 0.5907,-1.946 0.5907,-1.946 1,-4 -1.06645,-1.2963 -1.06645,-1.2963 -3.5625,-1.0625 -0.80438,0.021 -1.60875,0.041 -2.4375,0.062 z m -1,9 c 0.33,1.65 0.66,3.3 1,5 1.65,0 3.3,0 5,0 0.33,-1.65 0.66,-3.3 1,-5 -3.58328,-1.0022 -3.58328,-1.0022 -7,0 z"
       fill="#000000"
       id="path1" />
    <path
       d="m 1409.5,1034.5 c 3.5,0.5 3.5,0.5 5.5,2.125 1.3314,3.162 0.6551,5.034 0,8.375 0.2644,2.3421 0.5824,4.6803 1,7 -1.5625,1.5625 -1.5625,1.5625 -4,3 -6.3273,-0.3273 -6.3273,-0.3273 -9,-3 -0.3333,-5.3333 -0.3333,-5.3333 1,-8 -0.2062,-0.7837 -0.4125,-1.5675 -0.625,-2.375 C 1403,1039 1403,1039 1404,1036.6875 c 2,-1.6875 2,-1.6875 5.5,-2.1875 z m -2.5,3.5 c -0.5907,1.946 -0.5907,1.946 -1,4 1.0665,1.2963 1.0665,1.2963 3.5625,1.0625 0.8044,-0.021 1.6088,-0.041 2.4375,-0.062 0.5907,-1.946 0.5907,-1.946 1,-4 -1.0665,-1.2963 -1.0665,-1.2963 -3.5625,-1.0625 -0.8044,0.021 -1.6087,0.041 -2.4375,0.062 z m -1,9 c 0.33,1.65 0.66,3.3 1,5 1.65,0 3.3,0 5,0 0.33,-1.65 0.66,-3.3 1,-5 -3.5833,-1.0022 -3.5833,-1.0022 -7,0 z"
       fill="#000000"
       id="path2" />
    <path
       d="m 609.5,1034.5 c 3.5,0.5 3.5,0.5 5.5,2.125 1.33137,3.162 0.65511,5.034 0,8.375 0.26444,2.3421 0.58245,4.6803 1,7 -1.5625,1.5625 -1.5625,1.5625 -4,3 -6.32727,-0.3273 -6.32727,-0.3273 -9,-3 -0.33333,-5.3333 -0.33333,-5.3333 1,-8 -0.20625,-0.7837 -0.4125,-1.5675 -0.625,-2.375 C 603,1039 603,1039 604,1036.6875 606,1035 606,1035 609.5,1034.5 Z m -2.5,3.5 c -0.5907,1.946 -0.5907,1.946 -1,4 1.06645,1.2963 1.06645,1.2963 3.5625,1.0625 0.80438,-0.021 1.60875,-0.041 2.4375,-0.062 0.5907,-1.946 0.5907,-1.946 1,-4 -1.06645,-1.2963 -1.06645,-1.2963 -3.5625,-1.0625 -0.80438,0.021 -1.60875,0.041 -2.4375,0.062 z m -1,9 c 0.33,1.65 0.66,3.3 1,5 1.65,0 3.3,0 5,0 0.33,-1.65 0.66,-3.3 1,-5 -3.58328,-1.0022 -3.58328,-1.0022 -7,0 z"
       fill="#000000"
       id="path3" />
    <path
       d="m 979.5,612.5 c 3.5,0.5 3.5,0.5 5.5,2.125 1.33137,3.16201 0.65511,5.03396 0,8.375 0.26444,2.34214 0.58245,4.68026 1,7 -1.5625,1.5625 -1.5625,1.5625 -4,3 -6.32727,-0.32727 -6.32727,-0.32727 -9,-3 -0.33333,-5.33333 -0.33333,-5.33333 1,-8 -0.20625,-0.78375 -0.4125,-1.5675 -0.625,-2.375 C 973,617 973,617 974,614.6875 976,613 976,613 979.5,612.5 Z M 977,616 c -0.5907,1.94603 -0.5907,1.94603 -1,4 1.06645,1.29634 1.06645,1.29634 3.5625,1.0625 0.80438,-0.0206 1.60875,-0.0412 2.4375,-0.0625 0.5907,-1.94603 0.5907,-1.94603 1,-4 -1.06645,-1.29634 -1.06645,-1.29634 -3.5625,-1.0625 -0.80438,0.0206 -1.60875,0.0412 -2.4375,0.0625 z m -1,9 c 0.33,1.65 0.66,3.3 1,5 1.65,0 3.3,0 5,0 0.33,-1.65 0.66,-3.3 1,-5 -3.58328,-1.00217 -3.58328,-1.00217 -7,0 z"
       fill="#000000"
       id="path4" />
    <path
       d="m 811,1035 c 0.99,0 1.98,0 3,0 0,3.96 0,7.92 0,12 0.66,0 1.32,0 2,0 0,0.99 0,1.98 0,3 -0.66,0 -1.32,0 -2,0 0,1.32 0,2.64 0,4 -0.99,0 -1.98,0 -3,0 0,-1.32 0,-2.64 0,-4 -1.29938,0.021 -2.59875,0.041 -3.9375,0.062 -4.75632,0.01 -9.34639,-0.4636 -14.0625,-1.0625 0,-0.99 0,-1.98 0,-3 0.94359,0.1914 0.94359,0.1914 1.90625,0.3867 3.01545,0.3497 5.14404,0.3979 8.09375,-0.3867 2.5608,-2.6805 4.39226,-5.4252 6.30859,-8.5937 0.55817,-0.7941 1.11633,-1.5882 1.69141,-2.4063 z m -1,6 c -2.37015,2.6548 -2.37015,2.6548 -3,6 1.32,0 2.64,0 4,0 0,-1.98 0,-3.96 0,-6 -0.33,0 -0.66,0 -1,0 z"
       fill="#000000"
       id="path5" />
    <path
       d="m 981,814 c 0.99,0 1.98,0 3,0 0,3.96 0,7.92 0,12 0.66,0 1.32,0 2,0 0,0.99 0,1.98 0,3 -0.66,0 -1.32,0 -2,0 0,1.32 0,2.64 0,4 -0.99,0 -1.98,0 -3,0 0,-1.32 0,-2.64 0,-4 -1.29938,0.0206 -2.59875,0.0412 -3.9375,0.0625 -4.75632,0.008 -9.34639,-0.46363 -14.0625,-1.0625 0,-0.99 0,-1.98 0,-3 0.94359,0.19143 0.94359,0.19143 1.90625,0.38672 3.01545,0.34968 5.14404,0.39791 8.09375,-0.38672 2.5608,-2.6805 4.39226,-5.4252 6.30859,-8.59375 C 979.86676,815.61219 980.42492,814.81812 981,814 Z m -1,6 c -2.37015,2.65484 -2.37015,2.65484 -3,6 1.32,0 2.64,0 4,0 0,-1.98 0,-3.96 0,-6 -0.33,0 -0.66,0 -1,0 z"
       fill="#000000"
       id="path6" />
    <path
       d="m 1014,1715 c 2.8612,4.2398 2.7767,9.0861 2,14 -2.1875,3.1875 -2.1875,3.1875 -5,5 -2.625,0.062 -2.625,0.062 -5,-1 -2.9051,-3.0871 -3.4317,-5.3043 -3.4375,-9.5 0.1119,-3.4881 0.2574,-5.1829 2,-8.25 3.5364,-1.8135 5.6856,-1.3617 9.4375,-0.25 z m -6,2 c -2.2205,1.806 -2.2205,1.806 -2.2656,4.3125 0.01,0.8869 0.01,1.7738 0.016,2.6875 -0.01,0.8869 -0.01,1.7738 -0.016,2.6875 0.045,2.5065 0.045,2.5065 2.2656,4.3125 2.7824,-0.4053 2.7824,-0.4053 5,-2 0.1245,-1.6423 0.1757,-3.2905 0.1875,-4.9375 0.014,-0.8959 0.028,-1.7918 0.043,-2.7148 0,-2.5388 0,-2.5388 -2.2305,-4.3477 -0.99,0 -1.98,0 -3,0 z"
       fill="#000000"
       id="path7" />
    <path
       d="m 999,1715 c 2.8612,4.2398 2.7767,9.0861 2,14 -2.1875,3.1875 -2.1875,3.1875 -5,5 -2.625,0.062 -2.625,0.062 -5,-1 -2.9051,-3.0871 -3.43174,-5.3043 -3.4375,-9.5 0.11192,-3.4881 0.25735,-5.1829 2,-8.25 3.5364,-1.8135 5.68559,-1.3617 9.4375,-0.25 z m -6,2 c -2.22053,1.806 -2.22053,1.806 -2.26563,4.3125 0.005,0.8869 0.0103,1.7738 0.0156,2.6875 -0.005,0.8869 -0.0103,1.7738 -0.0156,2.6875 0.0451,2.5065 0.0451,2.5065 2.26563,4.3125 2.78238,-0.4053 2.78238,-0.4053 5,-2 0.12455,-1.6423 0.17569,-3.2905 0.1875,-4.9375 0.0142,-0.8959 0.0284,-1.7918 0.043,-2.7148 10e-4,-2.5388 10e-4,-2.5388 -2.23047,-4.3477 -0.99,0 -1.98,0 -3,0 z"
       fill="#000000"
       id="path8" />
    <path
       d="m 1014,1615 c 2.8612,4.2398 2.7767,9.0861 2,14 -2.1875,3.1875 -2.1875,3.1875 -5,5 -2.625,0.062 -2.625,0.062 -5,-1 -2.9051,-3.0871 -3.4317,-5.3043 -3.4375,-9.5 0.1119,-3.4881 0.2574,-5.1829 2,-8.25 3.5364,-1.8135 5.6856,-1.3617 9.4375,-0.25 z m -6,2 c -2.2205,1.806 -2.2205,1.806 -2.2656,4.3125 0.01,0.8869 0.01,1.7738 0.016,2.6875 -0.01,0.8869 -0.01,1.7738 -0.016,2.6875 0.045,2.5065 0.045,2.5065 2.2656,4.3125 2.7824,-0.4053 2.7824,-0.4053 5,-2 0.1245,-1.6423 0.1757,-3.2905 0.1875,-4.9375 0.014,-0.8959 0.028,-1.7918 0.043,-2.7148 0,-2.5388 0,-2.5388 -2.2305,-4.3477 -0.99,0 -1.98,0 -3,0 z"
       fill="#000000"
       id="path9" />
    <path
       d="m 999,1615 c 2.8612,4.2398 2.7767,9.0861 2,14 -2.1875,3.1875 -2.1875,3.1875 -5,5 -2.625,0.062 -2.625,0.062 -5,-1 -2.9051,-3.0871 -3.43174,-5.3043 -3.4375,-9.5 0.11192,-3.4881 0.25735,-5.1829 2,-8.25 3.5364,-1.8135 5.68559,-1.3617 9.4375,-0.25 z m -6,2 c -2.22053,1.806 -2.22053,1.806 -2.26563,4.3125 0.005,0.8869 0.0103,1.7738 0.0156,2.6875 -0.005,0.8869 -0.0103,1.7738 -0.0156,2.6875 0.0451,2.5065 0.0451,2.5065 2.26563,4.3125 2.78238,-0.4053 2.78238,-0.4053 5,-2 0.12455,-1.6423 0.17569,-3.2905 0.1875,-4.9375 0.0142,-0.8959 0.0284,-1.7918 0.043,-2.7148 10e-4,-2.5388 10e-4,-2.5388 -2.23047,-4.3477 -0.99,0 -1.98,0 -3,0 z"
       fill="#000000"
       id="path10" />
    <path
       d="m 1014,1514 c 2.8612,4.2398 2.7767,9.0861 2,14 -2.1875,3.1875 -2.1875,3.1875 -5,5 -2.625,0.062 -2.625,0.062 -5,-1 -2.9051,-3.0871 -3.4317,-5.3043 -3.4375,-9.5 0.1119,-3.4881 0.2574,-5.1829 2,-8.25 3.5364,-1.8135 5.6856,-1.3617 9.4375,-0.25 z m -6,2 c -2.2205,1.806 -2.2205,1.806 -2.2656,4.3125 0.01,0.8869 0.01,1.7738 0.016,2.6875 -0.01,0.8869 -0.01,1.7738 -0.016,2.6875 0.045,2.5065 0.045,2.5065 2.2656,4.3125 2.7824,-0.4053 2.7824,-0.4053 5,-2 0.1245,-1.6423 0.1757,-3.2905 0.1875,-4.9375 0.014,-0.8959 0.028,-1.7918 0.043,-2.7148 0,-2.5388 0,-2.5388 -2.2305,-4.3477 -0.99,0 -1.98,0 -3,0 z"
       fill="#000000"
       id="path11" />
    <path
       d="m 999,1514 c 2.8612,4.2398 2.7767,9.0861 2,14 -2.1875,3.1875 -2.1875,3.1875 -5,5 -2.625,0.062 -2.625,0.062 -5,-1 -2.9051,-3.0871 -3.43174,-5.3043 -3.4375,-9.5 0.11192,-3.4881 0.25735,-5.1829 2,-8.25 3.5364,-1.8135 5.68559,-1.3617 9.4375,-0.25 z m -6,2 c -2.22053,1.806 -2.22053,1.806 -2.26563,4.3125 0.005,0.8869 0.0103,1.7738 0.0156,2.6875 -0.005,0.8869 -0.0103,1.7738 -0.0156,2.6875 0.0451,2.5065 0.0451,2.5065 2.26563,4.3125 2.78238,-0.4053 2.78238,-0.4053 5,-2 0.12455,-1.6423 0.17569,-3.2905 0.1875,-4.9375 0.0142,-0.8959 0.0284,-1.7918 0.043,-2.7148 10e-4,-2.5388 10e-4,-2.5388 -2.23047,-4.3477 -0.99,0 -1.98,0 -3,0 z"
       fill="#000000"
       id="path12" />
    <path
       d="m 984,1514 c 2.86118,4.2398 2.77672,9.0861 2,14 -2.1875,3.1875 -2.1875,3.1875 -5,5 -2.625,0.062 -2.625,0.062 -5,-1 -2.9051,-3.0871 -3.43174,-5.3043 -3.4375,-9.5 0.11192,-3.4881 0.25735,-5.1829 2,-8.25 3.5364,-1.8135 5.68559,-1.3617 9.4375,-0.25 z m -6,2 c -2.22053,1.806 -2.22053,1.806 -2.26563,4.3125 0.005,0.8869 0.0103,1.7738 0.0156,2.6875 -0.005,0.8869 -0.0103,1.7738 -0.0156,2.6875 0.0451,2.5065 0.0451,2.5065 2.26563,4.3125 2.78238,-0.4053 2.78238,-0.4053 5,-2 0.12455,-1.6423 0.17569,-3.2905 0.1875,-4.9375 0.0142,-0.8959 0.0284,-1.7918 0.043,-2.7148 10e-4,-2.5388 10e-4,-2.5388 -2.23047,-4.3477 -0.99,0 -1.98,0 -3,0 z"
       fill="#000000"
       id="path13" />
    <path
       d="m 1015,1414 c 2.8612,4.2398 2.7767,9.0861 2,14 -2.1875,3.1875 -2.1875,3.1875 -5,5 -2.625,0.062 -2.625,0.062 -5,-1 -2.9051,-3.0871 -3.4317,-5.3043 -3.4375,-9.5 0.1119,-3.4881 0.2574,-5.1829 2,-8.25 3.5364,-1.8135 5.6856,-1.3617 9.4375,-0.25 z m -6,2 c -2.2205,1.806 -2.2205,1.806 -2.2656,4.3125 0.01,0.8869 0.01,1.7738 0.016,2.6875 -0.01,0.8869 -0.01,1.7738 -0.016,2.6875 0.045,2.5065 0.045,2.5065 2.2656,4.3125 2.7824,-0.4053 2.7824,-0.4053 5,-2 0.1245,-1.6423 0.1757,-3.2905 0.1875,-4.9375 0.014,-0.8959 0.028,-1.7918 0.043,-2.7148 0,-2.5388 0,-2.5388 -2.2305,-4.3477 -0.99,0 -1.98,0 -3,0 z"
       fill="#000000"
       id="path14" />
    <path
       d="m 1000,1414 c 2.8612,4.2398 2.7767,9.0861 2,14 -2.1875,3.1875 -2.1875,3.1875 -5,5 -2.625,0.062 -2.625,0.062 -5,-1 -2.9051,-3.0871 -3.43174,-5.3043 -3.4375,-9.5 0.11192,-3.4881 0.25735,-5.1829 2,-8.25 3.5364,-1.8135 5.68559,-1.3617 9.4375,-0.25 z m -6,2 c -2.22053,1.806 -2.22053,1.806 -2.26563,4.3125 0.005,0.8869 0.0103,1.7738 0.0156,2.6875 -0.005,0.8869 -0.0103,1.7738 -0.0156,2.6875 0.0451,2.5065 0.0451,2.5065 2.26563,4.3125 2.78238,-0.4053 2.78238,-0.4053 5,-2 0.12455,-1.6423 0.17569,-3.2905 0.1875,-4.9375 0.0142,-0.8959 0.0284,-1.7918 0.043,-2.7148 10e-4,-2.5388 10e-4,-2.5388 -2.23047,-4.3477 -0.99,0 -1.98,0 -3,0 z"
       fill="#000000"
       id="path15" />
    <path
       d="m 1015,1315 c 2.8612,4.2398 2.7767,9.0861 2,14 -2.1875,3.1875 -2.1875,3.1875 -5,5 -2.625,0.062 -2.625,0.062 -5,-1 -2.9051,-3.0871 -3.4317,-5.3043 -3.4375,-9.5 0.1119,-3.4881 0.2574,-5.1829 2,-8.25 3.5364,-1.8135 5.6856,-1.3617 9.4375,-0.25 z m -6,2 c -2.2205,1.806 -2.2205,1.806 -2.2656,4.3125 0.01,0.8869 0.01,1.7738 0.016,2.6875 -0.01,0.8869 -0.01,1.7738 -0.016,2.6875 0.045,2.5065 0.045,2.5065 2.2656,4.3125 2.7824,-0.4053 2.7824,-0.4053 5,-2 0.1245,-1.6423 0.1757,-3.2905 0.1875,-4.9375 0.014,-0.8959 0.028,-1.7918 0.043,-2.7148 0,-2.5388 0,-2.5388 -2.2305,-4.3477 -0.99,0 -1.98,0 -3,0 z"
       fill="#000000"
       id="path16" />
    <path
       d="m 1000,1315 c 2.8612,4.2398 2.7767,9.0861 2,14 -2.1875,3.1875 -2.1875,3.1875 -5,5 -2.625,0.062 -2.625,0.062 -5,-1 -2.9051,-3.0871 -3.43174,-5.3043 -3.4375,-9.5 0.11192,-3.4881 0.25735,-5.1829 2,-8.25 3.5364,-1.8135 5.68559,-1.3617 9.4375,-0.25 z m -6,2 c -2.22053,1.806 -2.22053,1.806 -2.26563,4.3125 0.005,0.8869 0.0103,1.7738 0.0156,2.6875 -0.005,0.8869 -0.0103,1.7738 -0.0156,2.6875 0.0451,2.5065 0.0451,2.5065 2.26563,4.3125 2.78238,-0.4053 2.78238,-0.4053 5,-2 0.12455,-1.6423 0.17569,-3.2905 0.1875,-4.9375 0.0142,-0.8959 0.0284,-1.7918 0.043,-2.7148 10e-4,-2.5388 10e-4,-2.5388 -2.23047,-4.3477 -0.99,0 -1.98,0 -3,0 z"
       fill="#000000"
       id="path17" />
    <path
       d="m 1015,1214 c 2.8612,4.2398 2.7767,9.0861 2,14 -2.1875,3.1875 -2.1875,3.1875 -5,5 -2.625,0.062 -2.625,0.062 -5,-1 -2.9051,-3.0871 -3.4317,-5.3043 -3.4375,-9.5 0.1119,-3.4881 0.2574,-5.1829 2,-8.25 3.5364,-1.8135 5.6856,-1.3617 9.4375,-0.25 z m -6,2 c -2.2205,1.806 -2.2205,1.806 -2.2656,4.3125 0.01,0.8869 0.01,1.7738 0.016,2.6875 -0.01,0.8869 -0.01,1.7738 -0.016,2.6875 0.045,2.5065 0.045,2.5065 2.2656,4.3125 2.7824,-0.4053 2.7824,-0.4053 5,-2 0.1245,-1.6423 0.1757,-3.2905 0.1875,-4.9375 0.014,-0.8959 0.028,-1.7918 0.043,-2.7148 0,-2.5388 0,-2.5388 -2.2305,-4.3477 -0.99,0 -1.98,0 -3,0 z"
       fill="#000000"
       id="path18" />
    <path
       d="m 1000,1214 c 2.8612,4.2398 2.7767,9.0861 2,14 -2.1875,3.1875 -2.1875,3.1875 -5,5 -2.625,0.062 -2.625,0.062 -5,-1 -2.9051,-3.0871 -3.43174,-5.3043 -3.4375,-9.5 0.11192,-3.4881 0.25735,-5.1829 2,-8.25 3.5364,-1.8135 5.68559,-1.3617 9.4375,-0.25 z m -6,2 c -2.22053,1.806 -2.22053,1.806 -2.26563,4.3125 0.005,0.8869 0.0103,1.7738 0.0156,2.6875 -0.005,0.8869 -0.0103,1.7738 -0.0156,2.6875 0.0451,2.5065 0.0451,2.5065 2.26563,4.3125 2.78238,-0.4053 2.78238,-0.4053 5,-2 0.12455,-1.6423 0.17569,-3.2905 0.1875,-4.9375 0.0142,-0.8959 0.0284,-1.7918 0.043,-2.7148 10e-4,-2.5388 10e-4,-2.5388 -2.23047,-4.3477 -0.99,0 -1.98,0 -3,0 z"
       fill="#000000"
       id="path19" />
    <path
       d="m 1015,1115 c 2.8612,4.2398 2.7767,9.0861 2,14 -2.1875,3.1875 -2.1875,3.1875 -5,5 -2.625,0.062 -2.625,0.062 -5,-1 -2.9051,-3.0871 -3.4317,-5.3043 -3.4375,-9.5 0.1119,-3.4881 0.2574,-5.1829 2,-8.25 3.5364,-1.8135 5.6856,-1.3617 9.4375,-0.25 z m -6,2 c -2.2205,1.806 -2.2205,1.806 -2.2656,4.3125 0.01,0.8869 0.01,1.7738 0.016,2.6875 -0.01,0.8869 -0.01,1.7738 -0.016,2.6875 0.045,2.5065 0.045,2.5065 2.2656,4.3125 2.7824,-0.4053 2.7824,-0.4053 5,-2 0.1245,-1.6423 0.1757,-3.2905 0.1875,-4.9375 0.014,-0.8959 0.028,-1.7918 0.043,-2.7148 0,-2.5388 0,-2.5388 -2.2305,-4.3477 -0.99,0 -1.98,0 -3,0 z"
       fill="#000000"
       id="path20" />
    <path
       d="m 1000,1115 c 2.8612,4.2398 2.7767,9.0861 2,14 -2.1875,3.1875 -2.1875,3.1875 -5,5 -2.625,0.062 -2.625,0.062 -5,-1 -2.9051,-3.0871 -3.43174,-5.3043 -3.4375,-9.5 0.11192,-3.4881 0.25735,-5.1829 2,-8.25 3.5364,-1.8135 5.68559,-1.3617 9.4375,-0.25 z m -6,2 c -2.22053,1.806 -2.22053,1.806 -2.26563,4.3125 0.005,0.8869 0.0103,1.7738 0.0156,2.6875 -0.005,0.8869 -0.0103,1.7738 -0.0156,2.6875 0.0451,2.5065 0.0451,2.5065 2.26563,4.3125 2.78238,-0.4053 2.78238,-0.4053 5,-2 0.12455,-1.6423 0.17569,-3.2905 0.1875,-4.9375 0.0142,-0.8959 0.0284,-1.7918 0.043,-2.7148 10e-4,-2.5388 10e-4,-2.5388 -2.23047,-4.3477 -0.99,0 -1.98,0 -3,0 z"
       fill="#000000"
       id="path21" />
    <path
       d="m 1751,1036 c 2.8612,4.2398 2.7767,9.0861 2,14 -2.1875,3.1875 -2.1875,3.1875 -5,5 -2.625,0.062 -2.625,0.062 -5,-1 -2.9051,-3.0871 -3.4317,-5.3043 -3.4375,-9.5 0.1119,-3.4881 0.2574,-5.1829 2,-8.25 3.5364,-1.8135 5.6856,-1.3617 9.4375,-0.25 z m -6,2 c -2.2205,1.806 -2.2205,1.806 -2.2656,4.3125 0.01,0.8869 0.01,1.7738 0.016,2.6875 -0.01,0.8869 -0.01,1.7738 -0.016,2.6875 0.045,2.5065 0.045,2.5065 2.2656,4.3125 2.7824,-0.4053 2.7824,-0.4053 5,-2 0.1245,-1.6423 0.1757,-3.2905 0.1875,-4.9375 0.014,-0.8959 0.028,-1.7918 0.043,-2.7148 0,-2.5388 0,-2.5388 -2.2305,-4.3477 -0.99,0 -1.98,0 -3,0 z"
       fill="#000000"
       id="path22" />
    <path
       d="m 1736,1036 c 2.8612,4.2398 2.7767,9.0861 2,14 -2.1875,3.1875 -2.1875,3.1875 -5,5 -2.625,0.062 -2.625,0.062 -5,-1 -2.9051,-3.0871 -3.4317,-5.3043 -3.4375,-9.5 0.1119,-3.4881 0.2574,-5.1829 2,-8.25 3.5364,-1.8135 5.6856,-1.3617 9.4375,-0.25 z m -6,2 c -2.2205,1.806 -2.2205,1.806 -2.2656,4.3125 0.01,0.8869 0.01,1.7738 0.016,2.6875 -0.01,0.8869 -0.01,1.7738 -0.016,2.6875 0.045,2.5065 0.045,2.5065 2.2656,4.3125 2.7824,-0.4053 2.7824,-0.4053 5,-2 0.1245,-1.6423 0.1757,-3.2905 0.1875,-4.9375 0.014,-0.8959 0.028,-1.7918 0.043,-2.7148 0,-2.5388 0,-2.5388 -2.2305,-4.3477 -0.99,0 -1.98,0 -3,0 z"
       fill="#000000"
       id="path23" />
    <path
       d="m 1651,1036 c 2.8612,4.2398 2.7767,9.0861 2,14 -2.1875,3.1875 -2.1875,3.1875 -5,5 -2.625,0.062 -2.625,0.062 -5,-1 -2.9051,-3.0871 -3.4317,-5.3043 -3.4375,-9.5 0.1119,-3.4881 0.2574,-5.1829 2,-8.25 3.5364,-1.8135 5.6856,-1.3617 9.4375,-0.25 z m -6,2 c -2.2205,1.806 -2.2205,1.806 -2.2656,4.3125 0.01,0.8869 0.01,1.7738 0.016,2.6875 -0.01,0.8869 -0.01,1.7738 -0.016,2.6875 0.045,2.5065 0.045,2.5065 2.2656,4.3125 2.7824,-0.4053 2.7824,-0.4053 5,-2 0.1245,-1.6423 0.1757,-3.2905 0.1875,-4.9375 0.014,-0.8959 0.028,-1.7918 0.043,-2.7148 0,-2.5388 0,-2.5388 -2.2305,-4.3477 -0.99,0 -1.98,0 -3,0 z"
       fill="#000000"
       id="path24" />
    <path
       d="m 1637,1036 c 2.8612,4.2398 2.7767,9.0861 2,14 -2.1875,3.1875 -2.1875,3.1875 -5,5 -2.625,0.062 -2.625,0.062 -5,-1 -2.9051,-3.0871 -3.4317,-5.3043 -3.4375,-9.5 0.1119,-3.4881 0.2574,-5.1829 2,-8.25 3.5364,-1.8135 5.6856,-1.3617 9.4375,-0.25 z m -6,2 c -2.2205,1.806 -2.2205,1.806 -2.2656,4.3125 0.01,0.8869 0.01,1.7738 0.016,2.6875 -0.01,0.8869 -0.01,1.7738 -0.016,2.6875 0.045,2.5065 0.045,2.5065 2.2656,4.3125 2.7824,-0.4053 2.7824,-0.4053 5,-2 0.1245,-1.6423 0.1757,-3.2905 0.1875,-4.9375 0.014,-0.8959 0.028,-1.7918 0.043,-2.7148 0,-2.5388 0,-2.5388 -2.2305,-4.3477 -0.99,0 -1.98,0 -3,0 z"
       fill="#000000"
       id="path25" />
    <path
       d="m 1552,1036 c 2.8612,4.2398 2.7767,9.0861 2,14 -2.1875,3.1875 -2.1875,3.1875 -5,5 -2.625,0.062 -2.625,0.062 -5,-1 -2.9051,-3.0871 -3.4317,-5.3043 -3.4375,-9.5 0.1119,-3.4881 0.2574,-5.1829 2,-8.25 3.5364,-1.8135 5.6856,-1.3617 9.4375,-0.25 z m -6,2 c -2.2205,1.806 -2.2205,1.806 -2.2656,4.3125 0.01,0.8869 0.01,1.7738 0.016,2.6875 -0.01,0.8869 -0.01,1.7738 -0.016,2.6875 0.045,2.5065 0.045,2.5065 2.2656,4.3125 2.7824,-0.4053 2.7824,-0.4053 5,-2 0.1245,-1.6423 0.1757,-3.2905 0.1875,-4.9375 0.014,-0.8959 0.028,-1.7918 0.043,-2.7148 0,-2.5388 0,-2.5388 -2.2305,-4.3477 -0.99,0 -1.98,0 -3,0 z"
       fill="#000000"
       id="path26" />
    <path
       d="m 1537,1036 c 2.8612,4.2398 2.7767,9.0861 2,14 -2.1875,3.1875 -2.1875,3.1875 -5,5 -2.625,0.062 -2.625,0.062 -5,-1 -2.9051,-3.0871 -3.4317,-5.3043 -3.4375,-9.5 0.1119,-3.4881 0.2574,-5.1829 2,-8.25 3.5364,-1.8135 5.6856,-1.3617 9.4375,-0.25 z m -6,2 c -2.2205,1.806 -2.2205,1.806 -2.2656,4.3125 0.01,0.8869 0.01,1.7738 0.016,2.6875 -0.01,0.8869 -0.01,1.7738 -0.016,2.6875 0.045,2.5065 0.045,2.5065 2.2656,4.3125 2.7824,-0.4053 2.7824,-0.4053 5,-2 0.1245,-1.6423 0.1757,-3.2905 0.1875,-4.9375 0.014,-0.8959 0.028,-1.7918 0.043,-2.7148 0,-2.5388 0,-2.5388 -2.2305,-4.3477 -0.99,0 -1.98,0 -3,0 z"
       fill="#000000"
       id="path27" />
    <path
       d="m 1522,1036 c 2.8612,4.2398 2.7767,9.0861 2,14 -2.1875,3.1875 -2.1875,3.1875 -5,5 -2.625,0.062 -2.625,0.062 -5,-1 -2.9051,-3.0871 -3.4317,-5.3043 -3.4375,-9.5 0.1119,-3.4881 0.2574,-5.1829 2,-8.25 3.5364,-1.8135 5.6856,-1.3617 9.4375,-0.25 z m -6,2 c -2.2205,1.806 -2.2205,1.806 -2.2656,4.3125 0.01,0.8869 0.01,1.7738 0.016,2.6875 -0.01,0.8869 -0.01,1.7738 -0.016,2.6875 0.045,2.5065 0.045,2.5065 2.2656,4.3125 2.7824,-0.4053 2.7824,-0.4053 5,-2 0.1245,-1.6423 0.1757,-3.2905 0.1875,-4.9375 0.014,-0.8959 0.028,-1.7918 0.043,-2.7148 0,-2.5388 0,-2.5388 -2.2305,-4.3477 -0.99,0 -1.98,0 -3,0 z"
       fill="#000000"
       id="path28" />
    <path
       d="m 1444,1036 c 2.8612,4.2398 2.7767,9.0861 2,14 -2.1875,3.1875 -2.1875,3.1875 -5,5 -2.625,0.062 -2.625,0.062 -5,-1 -2.9051,-3.0871 -3.4317,-5.3043 -3.4375,-9.5 0.1119,-3.4881 0.2574,-5.1829 2,-8.25 3.5364,-1.8135 5.6856,-1.3617 9.4375,-0.25 z m -6,2 c -2.2205,1.806 -2.2205,1.806 -2.2656,4.3125 0.01,0.8869 0.01,1.7738 0.016,2.6875 -0.01,0.8869 -0.01,1.7738 -0.016,2.6875 0.045,2.5065 0.045,2.5065 2.2656,4.3125 2.7824,-0.4053 2.7824,-0.4053 5,-2 0.1245,-1.6423 0.1757,-3.2905 0.1875,-4.9375 0.014,-0.8959 0.028,-1.7918 0.043,-2.7148 0,-2.5388 0,-2.5388 -2.2305,-4.3477 -0.99,0 -1.98,0 -3,0 z"
       fill="#000000"
       id="path29" />
    <path
       d="m 1429,1036 c 2.8612,4.2398 2.7767,9.0861 2,14 -2.1875,3.1875 -2.1875,3.1875 -5,5 -2.625,0.062 -2.625,0.062 -5,-1 -2.9051,-3.0871 -3.4317,-5.3043 -3.4375,-9.5 0.1119,-3.4881 0.2574,-5.1829 2,-8.25 3.5364,-1.8135 5.6856,-1.3617 9.4375,-0.25 z m -6,2 c -2.2205,1.806 -2.2205,1.806 -2.2656,4.3125 0.01,0.8869 0.01,1.7738 0.016,2.6875 -0.01,0.8869 -0.01,1.7738 -0.016,2.6875 0.045,2.5065 0.045,2.5065 2.2656,4.3125 2.7824,-0.4053 2.7824,-0.4053 5,-2 0.1245,-1.6423 0.1757,-3.2905 0.1875,-4.9375 0.014,-0.8959 0.028,-1.7918 0.043,-2.7148 0,-2.5388 0,-2.5388 -2.2305,-4.3477 -0.99,0 -1.98,0 -3,0 z"
       fill="#000000"
       id="path30" />
    <path
       d="m 1344,1036 c 2.8612,4.2398 2.7767,9.0861 2,14 -2.1875,3.1875 -2.1875,3.1875 -5,5 -2.625,0.062 -2.625,0.062 -5,-1 -2.9051,-3.0871 -3.4317,-5.3043 -3.4375,-9.5 0.1119,-3.4881 0.2574,-5.1829 2,-8.25 3.5364,-1.8135 5.6856,-1.3617 9.4375,-0.25 z m -6,2 c -2.2205,1.806 -2.2205,1.806 -2.2656,4.3125 0.01,0.8869 0.01,1.7738 0.016,2.6875 -0.01,0.8869 -0.01,1.7738 -0.016,2.6875 0.045,2.5065 0.045,2.5065 2.2656,4.3125 2.7824,-0.4053 2.7824,-0.4053 5,-2 0.1245,-1.6423 0.1757,-3.2905 0.1875,-4.9375 0.014,-0.8959 0.028,-1.7918 0.043,-2.7148 0,-2.5388 0,-2.5388 -2.2305,-4.3477 -0.99,0 -1.98,0 -3,0 z"
       fill="#000000"
       id="path31" />
    <path
       d="m 1329,1036 c 2.8612,4.2398 2.7767,9.0861 2,14 -2.1875,3.1875 -2.1875,3.1875 -5,5 -2.625,0.062 -2.625,0.062 -5,-1 -2.9051,-3.0871 -3.4317,-5.3043 -3.4375,-9.5 0.1119,-3.4881 0.2574,-5.1829 2,-8.25 3.5364,-1.8135 5.6856,-1.3617 9.4375,-0.25 z m -6,2 c -2.2205,1.806 -2.2205,1.806 -2.2656,4.3125 0.01,0.8869 0.01,1.7738 0.016,2.6875 -0.01,0.8869 -0.01,1.7738 -0.016,2.6875 0.045,2.5065 0.045,2.5065 2.2656,4.3125 2.7824,-0.4053 2.7824,-0.4053 5,-2 0.1245,-1.6423 0.1757,-3.2905 0.1875,-4.9375 0.014,-0.8959 0.028,-1.7918 0.043,-2.7148 0,-2.5388 0,-2.5388 -2.2305,-4.3477 -0.99,0 -1.98,0 -3,0 z"
       fill="#000000"
       id="path32" />
    <path
       d="m 1243,1036 c 2.8612,4.2398 2.7767,9.0861 2,14 -2.1875,3.1875 -2.1875,3.1875 -5,5 -2.625,0.062 -2.625,0.062 -5,-1 -2.9051,-3.0871 -3.4317,-5.3043 -3.4375,-9.5 0.1119,-3.4881 0.2574,-5.1829 2,-8.25 3.5364,-1.8135 5.6856,-1.3617 9.4375,-0.25 z m -6,2 c -2.2205,1.806 -2.2205,1.806 -2.2656,4.3125 0.01,0.8869 0.01,1.7738 0.016,2.6875 -0.01,0.8869 -0.01,1.7738 -0.016,2.6875 0.045,2.5065 0.045,2.5065 2.2656,4.3125 2.7824,-0.4053 2.7824,-0.4053 5,-2 0.1245,-1.6423 0.1757,-3.2905 0.1875,-4.9375 0.014,-0.8959 0.028,-1.7918 0.043,-2.7148 0,-2.5388 0,-2.5388 -2.2305,-4.3477 -0.99,0 -1.98,0 -3,0 z"
       fill="#000000"
       id="path33" />
    <path
       d="m 1228,1036 c 2.8612,4.2398 2.7767,9.0861 2,14 -2.1875,3.1875 -2.1875,3.1875 -5,5 -2.625,0.062 -2.625,0.062 -5,-1 -2.9051,-3.0871 -3.4317,-5.3043 -3.4375,-9.5 0.1119,-3.4881 0.2574,-5.1829 2,-8.25 3.5364,-1.8135 5.6856,-1.3617 9.4375,-0.25 z m -6,2 c -2.2205,1.806 -2.2205,1.806 -2.2656,4.3125 0.01,0.8869 0.01,1.7738 0.016,2.6875 -0.01,0.8869 -0.01,1.7738 -0.016,2.6875 0.045,2.5065 0.045,2.5065 2.2656,4.3125 2.7824,-0.4053 2.7824,-0.4053 5,-2 0.1245,-1.6423 0.1757,-3.2905 0.1875,-4.9375 0.014,-0.8959 0.028,-1.7918 0.043,-2.7148 0,-2.5388 0,-2.5388 -2.2305,-4.3477 -0.99,0 -1.98,0 -3,0 z"
       fill="#000000"
       id="path34" />
    <path
       d="m 1143,1036 c 2.8612,4.2398 2.7767,9.0861 2,14 -2.1875,3.1875 -2.1875,3.1875 -5,5 -2.625,0.062 -2.625,0.062 -5,-1 -2.9051,-3.0871 -3.4317,-5.3043 -3.4375,-9.5 0.1119,-3.4881 0.2574,-5.1829 2,-8.25 3.5364,-1.8135 5.6856,-1.3617 9.4375,-0.25 z m -6,2 c -2.2205,1.806 -2.2205,1.806 -2.2656,4.3125 0.01,0.8869 0.01,1.7738 0.016,2.6875 -0.01,0.8869 -0.01,1.7738 -0.016,2.6875 0.045,2.5065 0.045,2.5065 2.2656,4.3125 2.7824,-0.4053 2.7824,-0.4053 5,-2 0.1245,-1.6423 0.1757,-3.2905 0.1875,-4.9375 0.014,-0.8959 0.028,-1.7918 0.043,-2.7148 0,-2.5388 0,-2.5388 -2.2305,-4.3477 -0.99,0 -1.98,0 -3,0 z"
       fill="#000000"
       id="path35" />
    <path
       d="m 1128,1036 c 2.8612,4.2398 2.7767,9.0861 2,14 -2.1875,3.1875 -2.1875,3.1875 -5,5 -2.625,0.062 -2.625,0.062 -5,-1 -2.9051,-3.0871 -3.4317,-5.3043 -3.4375,-9.5 0.1119,-3.4881 0.2574,-5.1829 2,-8.25 3.5364,-1.8135 5.6856,-1.3617 9.4375,-0.25 z m -6,2 c -2.2205,1.806 -2.2205,1.806 -2.2656,4.3125 0.01,0.8869 0.01,1.7738 0.016,2.6875 -0.01,0.8869 -0.01,1.7738 -0.016,2.6875 0.045,2.5065 0.045,2.5065 2.2656,4.3125 2.7824,-0.4053 2.7824,-0.4053 5,-2 0.1245,-1.6423 0.1757,-3.2905 0.1875,-4.9375 0.014,-0.8959 0.028,-1.7918 0.043,-2.7148 0,-2.5388 0,-2.5388 -2.2305,-4.3477 -0.99,0 -1.98,0 -3,0 z"
       fill="#000000"
       id="path36" />
    <path
       d="m 944,1036 c 2.86118,4.2398 2.77672,9.0861 2,14 -2.1875,3.1875 -2.1875,3.1875 -5,5 -2.625,0.062 -2.625,0.062 -5,-1 -2.9051,-3.0871 -3.43174,-5.3043 -3.4375,-9.5 0.11192,-3.4881 0.25735,-5.1829 2,-8.25 3.5364,-1.8135 5.68559,-1.3617 9.4375,-0.25 z m -6,2 c -2.22053,1.806 -2.22053,1.806 -2.26563,4.3125 0.005,0.8869 0.0103,1.7738 0.0156,2.6875 -0.005,0.8869 -0.0103,1.7738 -0.0156,2.6875 0.0451,2.5065 0.0451,2.5065 2.26563,4.3125 2.78238,-0.4053 2.78238,-0.4053 5,-2 0.12455,-1.6423 0.17569,-3.2905 0.1875,-4.9375 0.0142,-0.8959 0.0284,-1.7918 0.043,-2.7148 10e-4,-2.5388 10e-4,-2.5388 -2.23047,-4.3477 -0.99,0 -1.98,0 -3,0 z"
       fill="#000000"
       id="path37" />
    <path
       d="m 929,1036 c 2.86118,4.2398 2.77672,9.0861 2,14 -2.1875,3.1875 -2.1875,3.1875 -5,5 -2.625,0.062 -2.625,0.062 -5,-1 -2.9051,-3.0871 -3.43174,-5.3043 -3.4375,-9.5 0.11192,-3.4881 0.25735,-5.1829 2,-8.25 3.5364,-1.8135 5.68559,-1.3617 9.4375,-0.25 z m -6,2 c -2.22053,1.806 -2.22053,1.806 -2.26563,4.3125 0.005,0.8869 0.0103,1.7738 0.0156,2.6875 -0.005,0.8869 -0.0103,1.7738 -0.0156,2.6875 0.0451,2.5065 0.0451,2.5065 2.26563,4.3125 2.78238,-0.4053 2.78238,-0.4053 5,-2 0.12455,-1.6423 0.17569,-3.2905 0.1875,-4.9375 0.0142,-0.8959 0.0284,-1.7918 0.043,-2.7148 10e-4,-2.5388 10e-4,-2.5388 -2.23047,-4.3477 -0.99,0 -1.98,0 -3,0 z"
       fill="#000000"
       id="path38" />
    <path
       d="m 844,1036 c 2.86118,4.2398 2.77672,9.0861 2,14 -2.1875,3.1875 -2.1875,3.1875 -5,5 -2.625,0.062 -2.625,0.062 -5,-1 -2.9051,-3.0871 -3.43174,-5.3043 -3.4375,-9.5 0.11192,-3.4881 0.25735,-5.1829 2,-8.25 3.5364,-1.8135 5.68559,-1.3617 9.4375,-0.25 z m -6,2 c -2.22053,1.806 -2.22053,1.806 -2.26563,4.3125 0.005,0.8869 0.0103,1.7738 0.0156,2.6875 -0.005,0.8869 -0.0103,1.7738 -0.0156,2.6875 0.0451,2.5065 0.0451,2.5065 2.26563,4.3125 2.78238,-0.4053 2.78238,-0.4053 5,-2 0.12455,-1.6423 0.17569,-3.2905 0.1875,-4.9375 0.0142,-0.8959 0.0284,-1.7918 0.043,-2.7148 10e-4,-2.5388 10e-4,-2.5388 -2.23047,-4.3477 -0.99,0 -1.98,0 -3,0 z"
       fill="#000000"
       id="path39" />
    <path
       d="m 829,1036 c 2.86118,4.2398 2.77672,9.0861 2,14 -2.1875,3.1875 -2.1875,3.1875 -5,5 -2.625,0.062 -2.625,0.062 -5,-1 -2.9051,-3.0871 -3.43174,-5.3043 -3.4375,-9.5 0.11192,-3.4881 0.25735,-5.1829 2,-8.25 3.5364,-1.8135 5.68559,-1.3617 9.4375,-0.25 z m -6,2 c -2.22053,1.806 -2.22053,1.806 -2.26563,4.3125 0.005,0.8869 0.0103,1.7738 0.0156,2.6875 -0.005,0.8869 -0.0103,1.7738 -0.0156,2.6875 0.0451,2.5065 0.0451,2.5065 2.26563,4.3125 2.78238,-0.4053 2.78238,-0.4053 5,-2 0.12455,-1.6423 0.17569,-3.2905 0.1875,-4.9375 0.0142,-0.8959 0.0284,-1.7918 0.043,-2.7148 10e-4,-2.5388 10e-4,-2.5388 -2.23047,-4.3477 -0.99,0 -1.98,0 -3,0 z"
       fill="#000000"
       id="path40" />
    <path
       d="m 744,1036 c 2.86118,4.2398 2.77672,9.0861 2,14 -2.1875,3.1875 -2.1875,3.1875 -5,5 -2.625,0.062 -2.625,0.062 -5,-1 -2.9051,-3.0871 -3.43174,-5.3043 -3.4375,-9.5 0.11192,-3.4881 0.25735,-5.1829 2,-8.25 3.5364,-1.8135 5.68559,-1.3617 9.4375,-0.25 z m -6,2 c -2.22053,1.806 -2.22053,1.806 -2.26563,4.3125 0.005,0.8869 0.0103,1.7738 0.0156,2.6875 -0.005,0.8869 -0.0103,1.7738 -0.0156,2.6875 0.0451,2.5065 0.0451,2.5065 2.26563,4.3125 2.78238,-0.4053 2.78238,-0.4053 5,-2 0.12455,-1.6423 0.17569,-3.2905 0.1875,-4.9375 0.0142,-0.8959 0.0284,-1.7918 0.043,-2.7148 10e-4,-2.5388 10e-4,-2.5388 -2.23047,-4.3477 -0.99,0 -1.98,0 -3,0 z"
       fill="#000000"
       id="path41" />
    <path
       d="m 729,1036 c 2.86118,4.2398 2.77672,9.0861 2,14 -2.1875,3.1875 -2.1875,3.1875 -5,5 -2.625,0.062 -2.625,0.062 -5,-1 -2.9051,-3.0871 -3.43174,-5.3043 -3.4375,-9.5 0.11192,-3.4881 0.25735,-5.1829 2,-8.25 3.5364,-1.8135 5.68559,-1.3617 9.4375,-0.25 z m -6,2 c -2.22053,1.806 -2.22053,1.806 -2.26563,4.3125 0.005,0.8869 0.0103,1.7738 0.0156,2.6875 -0.005,0.8869 -0.0103,1.7738 -0.0156,2.6875 0.0451,2.5065 0.0451,2.5065 2.26563,4.3125 2.78238,-0.4053 2.78238,-0.4053 5,-2 0.12455,-1.6423 0.17569,-3.2905 0.1875,-4.9375 0.0142,-0.8959 0.0284,-1.7918 0.043,-2.7148 10e-4,-2.5388 10e-4,-2.5388 -2.23047,-4.3477 -0.99,0 -1.98,0 -3,0 z"
       fill="#000000"
       id="path42" />
    <path
       d="m 644,1036 c 2.86118,4.2398 2.77672,9.0861 2,14 -2.1875,3.1875 -2.1875,3.1875 -5,5 -2.625,0.062 -2.625,0.062 -5,-1 -2.9051,-3.0871 -3.43174,-5.3043 -3.4375,-9.5 0.11192,-3.4881 0.25735,-5.1829 2,-8.25 3.5364,-1.8135 5.68559,-1.3617 9.4375,-0.25 z m -6,2 c -2.22053,1.806 -2.22053,1.806 -2.26563,4.3125 0.005,0.8869 0.0103,1.7738 0.0156,2.6875 -0.005,0.8869 -0.0103,1.7738 -0.0156,2.6875 0.0451,2.5065 0.0451,2.5065 2.26563,4.3125 2.78238,-0.4053 2.78238,-0.4053 5,-2 0.12455,-1.6423 0.17569,-3.2905 0.1875,-4.9375 0.0142,-0.8959 0.0284,-1.7918 0.043,-2.7148 10e-4,-2.5388 10e-4,-2.5388 -2.23047,-4.3477 -0.99,0 -1.98,0 -3,0 z"
       fill="#000000"
       id="path43" />
    <path
       d="m 629,1036 c 2.86118,4.2398 2.77672,9.0861 2,14 -2.1875,3.1875 -2.1875,3.1875 -5,5 -2.625,0.062 -2.625,0.062 -5,-1 -2.9051,-3.0871 -3.43174,-5.3043 -3.4375,-9.5 0.11192,-3.4881 0.25735,-5.1829 2,-8.25 3.5364,-1.8135 5.68559,-1.3617 9.4375,-0.25 z m -6,2 c -2.22053,1.806 -2.22053,1.806 -2.26563,4.3125 0.005,0.8869 0.0103,1.7738 0.0156,2.6875 -0.005,0.8869 -0.0103,1.7738 -0.0156,2.6875 0.0451,2.5065 0.0451,2.5065 2.26563,4.3125 2.78238,-0.4053 2.78238,-0.4053 5,-2 0.12455,-1.6423 0.17569,-3.2905 0.1875,-4.9375 0.0142,-0.8959 0.0284,-1.7918 0.043,-2.7148 10e-4,-2.5388 10e-4,-2.5388 -2.23047,-4.3477 -0.99,0 -1.98,0 -3,0 z"
       fill="#000000"
       id="path44" />
    <path
       d="m 550,1036 c 2.86118,4.2398 2.77672,9.0861 2,14 -2.1875,3.1875 -2.1875,3.1875 -5,5 -2.625,0.062 -2.625,0.062 -5,-1 -2.9051,-3.0871 -3.43174,-5.3043 -3.4375,-9.5 0.11192,-3.4881 0.25735,-5.1829 2,-8.25 3.5364,-1.8135 5.68559,-1.3617 9.4375,-0.25 z m -6,2 c -2.22053,1.806 -2.22053,1.806 -2.26563,4.3125 0.005,0.8869 0.0103,1.7738 0.0156,2.6875 -0.005,0.8869 -0.0103,1.7738 -0.0156,2.6875 0.0451,2.5065 0.0451,2.5065 2.26563,4.3125 2.78238,-0.4053 2.78238,-0.4053 5,-2 0.12455,-1.6423 0.17569,-3.2905 0.1875,-4.9375 0.0142,-0.8959 0.0284,-1.7918 0.043,-2.7148 10e-4,-2.5388 10e-4,-2.5388 -2.23047,-4.3477 -0.99,0 -1.98,0 -3,0 z"
       fill="#000000"
       id="path45" />
    <path
       d="m 535,1036 c 2.86118,4.2398 2.77672,9.0861 2,14 -2.1875,3.1875 -2.1875,3.1875 -5,5 -2.625,0.062 -2.625,0.062 -5,-1 -2.9051,-3.0871 -3.43174,-5.3043 -3.4375,-9.5 0.11192,-3.4881 0.25735,-5.1829 2,-8.25 3.5364,-1.8135 5.68559,-1.3617 9.4375,-0.25 z m -6,2 c -2.22053,1.806 -2.22053,1.806 -2.26563,4.3125 0.005,0.8869 0.0103,1.7738 0.0156,2.6875 -0.005,0.8869 -0.0103,1.7738 -0.0156,2.6875 0.0451,2.5065 0.0451,2.5065 2.26563,4.3125 2.78238,-0.4053 2.78238,-0.4053 5,-2 0.12455,-1.6423 0.17569,-3.2905 0.1875,-4.9375 0.0142,-0.8959 0.0284,-1.7918 0.043,-2.7148 10e-4,-2.5388 10e-4,-2.5388 -2.23047,-4.3477 -0.99,0 -1.98,0 -3,0 z"
       fill="#000000"
       id="path46" />
    <path
       d="m 520,1036 c 2.86118,4.2398 2.77672,9.0861 2,14 -2.1875,3.1875 -2.1875,3.1875 -5,5 -2.625,0.062 -2.625,0.062 -5,-1 -2.9051,-3.0871 -3.43174,-5.3043 -3.4375,-9.5 0.11192,-3.4881 0.25735,-5.1829 2,-8.25 3.5364,-1.8135 5.68559,-1.3617 9.4375,-0.25 z m -6,2 c -2.22053,1.806 -2.22053,1.806 -2.26563,4.3125 0.005,0.8869 0.0103,1.7738 0.0156,2.6875 -0.005,0.8869 -0.0103,1.7738 -0.0156,2.6875 0.0451,2.5065 0.0451,2.5065 2.26563,4.3125 2.78238,-0.4053 2.78238,-0.4053 5,-2 0.12455,-1.6423 0.17569,-3.2905 0.1875,-4.9375 0.0142,-0.8959 0.0284,-1.7918 0.043,-2.7148 10e-4,-2.5388 10e-4,-2.5388 -2.23047,-4.3477 -0.99,0 -1.98,0 -3,0 z"
       fill="#000000"
       id="path47" />
    <path
       d="m 451,1036 c 2.86118,4.2398 2.77672,9.0861 2,14 -2.1875,3.1875 -2.1875,3.1875 -5,5 -2.625,0.062 -2.625,0.062 -5,-1 -2.9051,-3.0871 -3.43174,-5.3043 -3.4375,-9.5 0.11192,-3.4881 0.25735,-5.1829 2,-8.25 3.5364,-1.8135 5.68559,-1.3617 9.4375,-0.25 z m -6,2 c -2.22053,1.806 -2.22053,1.806 -2.26563,4.3125 0.005,0.8869 0.0103,1.7738 0.0156,2.6875 -0.005,0.8869 -0.0103,1.7738 -0.0156,2.6875 0.0451,2.5065 0.0451,2.5065 2.26563,4.3125 2.78238,-0.4053 2.78238,-0.4053 5,-2 0.12455,-1.6423 0.17569,-3.2905 0.1875,-4.9375 0.0142,-0.8959 0.0284,-1.7918 0.043,-2.7148 10e-4,-2.5388 10e-4,-2.5388 -2.23047,-4.3477 -0.99,0 -1.98,0 -3,0 z"
       fill="#000000"
       id="path48" />
    <path
       d="m 436,1036 c 2.86118,4.2398 2.77672,9.0861 2,14 -2.1875,3.1875 -2.1875,3.1875 -5,5 -2.625,0.062 -2.625,0.062 -5,-1 -2.9051,-3.0871 -3.43174,-5.3043 -3.4375,-9.5 0.11192,-3.4881 0.25735,-5.1829 2,-8.25 3.5364,-1.8135 5.68559,-1.3617 9.4375,-0.25 z m -6,2 c -2.22053,1.806 -2.22053,1.806 -2.26563,4.3125 0.005,0.8869 0.0103,1.7738 0.0156,2.6875 -0.005,0.8869 -0.0103,1.7738 -0.0156,2.6875 0.0451,2.5065 0.0451,2.5065 2.26563,4.3125 2.78238,-0.4053 2.78238,-0.4053 5,-2 0.12455,-1.6423 0.17569,-3.2905 0.1875,-4.9375 0.0142,-0.8959 0.0284,-1.7918 0.043,-2.7148 10e-4,-2.5388 10e-4,-2.5388 -2.23047,-4.3477 -0.99,0 -1.98,0 -3,0 z"
       fill="#000000"
       id="path49" />
    <path
       d="m 350,1036 c 2.86118,4.2398 2.77672,9.0861 2,14 -2.1875,3.1875 -2.1875,3.1875 -5,5 -2.625,0.062 -2.625,0.062 -5,-1 -2.9051,-3.0871 -3.43174,-5.3043 -3.4375,-9.5 0.11192,-3.4881 0.25735,-5.1829 2,-8.25 3.5364,-1.8135 5.68559,-1.3617 9.4375,-0.25 z m -6,2 c -2.22053,1.806 -2.22053,1.806 -2.26563,4.3125 0.005,0.8869 0.0103,1.7738 0.0156,2.6875 -0.005,0.8869 -0.0103,1.7738 -0.0156,2.6875 0.0451,2.5065 0.0451,2.5065 2.26563,4.3125 2.78238,-0.4053 2.78238,-0.4053 5,-2 0.12455,-1.6423 0.17569,-3.2905 0.1875,-4.9375 0.0142,-0.8959 0.0284,-1.7918 0.043,-2.7148 10e-4,-2.5388 10e-4,-2.5388 -2.23047,-4.3477 -0.99,0 -1.98,0 -3,0 z"
       fill="#000000"
       id="path50" />
    <path
       d="m 335,1036 c 2.86118,4.2398 2.77672,9.0861 2,14 -2.1875,3.1875 -2.1875,3.1875 -5,5 -2.625,0.062 -2.625,0.062 -5,-1 -2.9051,-3.0871 -3.43174,-5.3043 -3.4375,-9.5 0.11192,-3.4881 0.25735,-5.1829 2,-8.25 3.5364,-1.8135 5.68559,-1.3617 9.4375,-0.25 z m -6,2 c -2.22053,1.806 -2.22053,1.806 -2.26563,4.3125 0.005,0.8869 0.0103,1.7738 0.0156,2.6875 -0.005,0.8869 -0.0103,1.7738 -0.0156,2.6875 0.0451,2.5065 0.0451,2.5065 2.26563,4.3125 2.78238,-0.4053 2.78238,-0.4053 5,-2 0.12455,-1.6423 0.17569,-3.2905 0.1875,-4.9375 0.0142,-0.8959 0.0284,-1.7918 0.043,-2.7148 10e-4,-2.5388 10e-4,-2.5388 -2.23047,-4.3477 -0.99,0 -1.98,0 -3,0 z"
       fill="#000000"
       id="path51" />
    <path
       d="m 1014,915 c 2.8612,4.23983 2.7767,9.08608 2,14 -2.1875,3.1875 -2.1875,3.1875 -5,5 -2.625,0.0625 -2.625,0.0625 -5,-1 -2.9051,-3.0871 -3.4317,-5.30432 -3.4375,-9.5 0.1119,-3.48815 0.2574,-5.18294 2,-8.25 3.5364,-1.81354 5.6856,-1.36168 9.4375,-0.25 z m -6,2 c -2.2205,1.806 -2.2205,1.806 -2.2656,4.3125 0.01,0.88688 0.01,1.77375 0.016,2.6875 -0.01,0.88688 -0.01,1.77375 -0.016,2.6875 0.045,2.5065 0.045,2.5065 2.2656,4.3125 2.7824,-0.40529 2.7824,-0.40529 5,-2 0.1245,-1.6423 0.1757,-3.29052 0.1875,-4.9375 0.014,-0.8959 0.028,-1.7918 0.043,-2.71484 0,-2.53881 0,-2.53881 -2.2305,-4.34766 -0.99,0 -1.98,0 -3,0 z"
       fill="#000000"
       id="path52" />
    <path
       d="m 999,915 c 2.8612,4.23983 2.7767,9.08608 2,14 -2.1875,3.1875 -2.1875,3.1875 -5,5 -2.625,0.0625 -2.625,0.0625 -5,-1 -2.9051,-3.0871 -3.43174,-5.30432 -3.4375,-9.5 0.11192,-3.48815 0.25735,-5.18294 2,-8.25 3.5364,-1.81354 5.68559,-1.36168 9.4375,-0.25 z m -6,2 c -2.22053,1.806 -2.22053,1.806 -2.26563,4.3125 0.005,0.88688 0.0103,1.77375 0.0156,2.6875 -0.005,0.88688 -0.0103,1.77375 -0.0156,2.6875 0.0451,2.5065 0.0451,2.5065 2.26563,4.3125 2.78238,-0.40529 2.78238,-0.40529 5,-2 0.12455,-1.6423 0.17569,-3.29052 0.1875,-4.9375 0.0142,-0.8959 0.0284,-1.7918 0.043,-2.71484 10e-4,-2.53881 10e-4,-2.53881 -2.23047,-4.34766 -0.99,0 -1.98,0 -3,0 z"
       fill="#000000"
       id="path53" />
    <path
       d="m 1014,815 c 2.8612,4.23983 2.7767,9.08608 2,14 -2.1875,3.1875 -2.1875,3.1875 -5,5 -2.625,0.0625 -2.625,0.0625 -5,-1 -2.9051,-3.0871 -3.4317,-5.30432 -3.4375,-9.5 0.1119,-3.48815 0.2574,-5.18294 2,-8.25 3.5364,-1.81354 5.6856,-1.36168 9.4375,-0.25 z m -6,2 c -2.2205,1.806 -2.2205,1.806 -2.2656,4.3125 0.01,0.88688 0.01,1.77375 0.016,2.6875 -0.01,0.88688 -0.01,1.77375 -0.016,2.6875 0.045,2.5065 0.045,2.5065 2.2656,4.3125 2.7824,-0.40529 2.7824,-0.40529 5,-2 0.1245,-1.6423 0.1757,-3.29052 0.1875,-4.9375 0.014,-0.8959 0.028,-1.7918 0.043,-2.71484 0,-2.53881 0,-2.53881 -2.2305,-4.34766 -0.99,0 -1.98,0 -3,0 z"
       fill="#000000"
       id="path54" />
    <path
       d="m 999,815 c 2.8612,4.23983 2.7767,9.08608 2,14 -2.1875,3.1875 -2.1875,3.1875 -5,5 -2.625,0.0625 -2.625,0.0625 -5,-1 -2.9051,-3.0871 -3.43174,-5.30432 -3.4375,-9.5 0.11192,-3.48815 0.25735,-5.18294 2,-8.25 3.5364,-1.81354 5.68559,-1.36168 9.4375,-0.25 z m -6,2 c -2.22053,1.806 -2.22053,1.806 -2.26563,4.3125 0.005,0.88688 0.0103,1.77375 0.0156,2.6875 -0.005,0.88688 -0.0103,1.77375 -0.0156,2.6875 0.0451,2.5065 0.0451,2.5065 2.26563,4.3125 2.78238,-0.40529 2.78238,-0.40529 5,-2 0.12455,-1.6423 0.17569,-3.29052 0.1875,-4.9375 0.0142,-0.8959 0.0284,-1.7918 0.043,-2.71484 10e-4,-2.53881 10e-4,-2.53881 -2.23047,-4.34766 -0.99,0 -1.98,0 -3,0 z"
       fill="#000000"
       id="path55" />
    <path
       d="m 1014,714 c 2.8612,4.23983 2.7767,9.08608 2,14 -2.1875,3.1875 -2.1875,3.1875 -5,5 -2.625,0.0625 -2.625,0.0625 -5,-1 -2.9051,-3.0871 -3.4317,-5.30432 -3.4375,-9.5 0.1119,-3.48815 0.2574,-5.18294 2,-8.25 3.5364,-1.81354 5.6856,-1.36168 9.4375,-0.25 z m -6,2 c -2.2205,1.806 -2.2205,1.806 -2.2656,4.3125 0.01,0.88688 0.01,1.77375 0.016,2.6875 -0.01,0.88688 -0.01,1.77375 -0.016,2.6875 0.045,2.5065 0.045,2.5065 2.2656,4.3125 2.7824,-0.40529 2.7824,-0.40529 5,-2 0.1245,-1.6423 0.1757,-3.29052 0.1875,-4.9375 0.014,-0.8959 0.028,-1.7918 0.043,-2.71484 0,-2.53881 0,-2.53881 -2.2305,-4.34766 -0.99,0 -1.98,0 -3,0 z"
       fill="#000000"
       id="path56" />
    <path
       d="m 999,714 c 2.8612,4.23983 2.7767,9.08608 2,14 -2.1875,3.1875 -2.1875,3.1875 -5,5 -2.625,0.0625 -2.625,0.0625 -5,-1 -2.9051,-3.0871 -3.43174,-5.30432 -3.4375,-9.5 0.11192,-3.48815 0.25735,-5.18294 2,-8.25 3.5364,-1.81354 5.68559,-1.36168 9.4375,-0.25 z m -6,2 c -2.22053,1.806 -2.22053,1.806 -2.26563,4.3125 0.005,0.88688 0.0103,1.77375 0.0156,2.6875 -0.005,0.88688 -0.0103,1.77375 -0.0156,2.6875 0.0451,2.5065 0.0451,2.5065 2.26563,4.3125 2.78238,-0.40529 2.78238,-0.40529 5,-2 0.12455,-1.6423 0.17569,-3.29052 0.1875,-4.9375 0.0142,-0.8959 0.0284,-1.7918 0.043,-2.71484 10e-4,-2.53881 10e-4,-2.53881 -2.23047,-4.34766 -0.99,0 -1.98,0 -3,0 z"
       fill="#000000"
       id="path57" />
    <path
       d="m 1014,614 c 2.8612,4.23983 2.7767,9.08608 2,14 -2.1875,3.1875 -2.1875,3.1875 -5,5 -2.625,0.0625 -2.625,0.0625 -5,-1 -2.9051,-3.0871 -3.4317,-5.30432 -3.4375,-9.5 0.1119,-3.48815 0.2574,-5.18294 2,-8.25 3.5364,-1.81354 5.6856,-1.36168 9.4375,-0.25 z m -6,2 c -2.2205,1.806 -2.2205,1.806 -2.2656,4.3125 0.01,0.88688 0.01,1.77375 0.016,2.6875 -0.01,0.88688 -0.01,1.77375 -0.016,2.6875 0.045,2.5065 0.045,2.5065 2.2656,4.3125 2.7824,-0.40529 2.7824,-0.40529 5,-2 0.1245,-1.6423 0.1757,-3.29052 0.1875,-4.9375 0.014,-0.8959 0.028,-1.7918 0.043,-2.71484 0,-2.53881 0,-2.53881 -2.2305,-4.34766 -0.99,0 -1.98,0 -3,0 z"
       fill="#000000"
       id="path58" />
    <path
       d="m 999,614 c 2.8612,4.23983 2.7767,9.08608 2,14 -2.1875,3.1875 -2.1875,3.1875 -5,5 -2.625,0.0625 -2.625,0.0625 -5,-1 -2.9051,-3.0871 -3.43174,-5.30432 -3.4375,-9.5 0.11192,-3.48815 0.25735,-5.18294 2,-8.25 3.5364,-1.81354 5.68559,-1.36168 9.4375,-0.25 z m -6,2 c -2.22053,1.806 -2.22053,1.806 -2.26563,4.3125 0.005,0.88688 0.0103,1.77375 0.0156,2.6875 -0.005,0.88688 -0.0103,1.77375 -0.0156,2.6875 0.0451,2.5065 0.0451,2.5065 2.26563,4.3125 2.78238,-0.40529 2.78238,-0.40529 5,-2 0.12455,-1.6423 0.17569,-3.29052 0.1875,-4.9375 0.0142,-0.8959 0.0284,-1.7918 0.043,-2.71484 10e-4,-2.53881 10e-4,-2.53881 -2.23047,-4.34766 -0.99,0 -1.98,0 -3,0 z"
       fill="#000000"
       id="path59" />
    <path
       d="m 1013,514 c 2.8612,4.23983 2.7767,9.08608 2,14 -2.1875,3.1875 -2.1875,3.1875 -5,5 -2.625,0.0625 -2.625,0.0625 -5,-1 -2.9051,-3.0871 -3.4317,-5.30432 -3.4375,-9.5 0.1119,-3.48815 0.2574,-5.18294 2,-8.25 3.5364,-1.81354 5.6856,-1.36168 9.4375,-0.25 z m -6,2 c -2.2205,1.806 -2.2205,1.806 -2.2656,4.3125 0.01,0.88688 0.01,1.77375 0.016,2.6875 -0.01,0.88688 -0.01,1.77375 -0.016,2.6875 0.045,2.5065 0.045,2.5065 2.2656,4.3125 2.7824,-0.40529 2.7824,-0.40529 5,-2 0.1245,-1.6423 0.1757,-3.29052 0.1875,-4.9375 0.014,-0.8959 0.028,-1.7918 0.043,-2.71484 0,-2.53881 0,-2.53881 -2.2305,-4.34766 -0.99,0 -1.98,0 -3,0 z"
       fill="#000000"
       id="path60" />
    <path
       d="m 998,514 c 2.8612,4.23983 2.7767,9.08608 2,14 -2.1875,3.1875 -2.1875,3.1875 -5,5 -2.625,0.0625 -2.625,0.0625 -5,-1 -2.9051,-3.0871 -3.43174,-5.30432 -3.4375,-9.5 0.11192,-3.48815 0.25735,-5.18294 2,-8.25 3.5364,-1.81354 5.68559,-1.36168 9.4375,-0.25 z m -6,2 c -2.22053,1.806 -2.22053,1.806 -2.26563,4.3125 0.005,0.88688 0.0103,1.77375 0.0156,2.6875 -0.005,0.88688 -0.0103,1.77375 -0.0156,2.6875 0.0451,2.5065 0.0451,2.5065 2.26563,4.3125 2.78238,-0.40529 2.78238,-0.40529 5,-2 0.12455,-1.6423 0.17569,-3.29052 0.1875,-4.9375 0.0142,-0.8959 0.0284,-1.7918 0.043,-2.71484 10e-4,-2.53881 10e-4,-2.53881 -2.23047,-4.34766 -0.99,0 -1.98,0 -3,0 z"
       fill="#000000"
       id="path61" />
    <path
       d="m 983,514 c 2.86118,4.23983 2.77672,9.08608 2,14 -2.1875,3.1875 -2.1875,3.1875 -5,5 -2.625,0.0625 -2.625,0.0625 -5,-1 -2.9051,-3.0871 -3.43174,-5.30432 -3.4375,-9.5 0.11192,-3.48815 0.25735,-5.18294 2,-8.25 3.5364,-1.81354 5.68559,-1.36168 9.4375,-0.25 z m -6,2 c -2.22053,1.806 -2.22053,1.806 -2.26563,4.3125 0.005,0.88688 0.0103,1.77375 0.0156,2.6875 -0.005,0.88688 -0.0103,1.77375 -0.0156,2.6875 0.0451,2.5065 0.0451,2.5065 2.26563,4.3125 2.78238,-0.40529 2.78238,-0.40529 5,-2 0.12455,-1.6423 0.17569,-3.29052 0.1875,-4.9375 0.0142,-0.8959 0.0284,-1.7918 0.043,-2.71484 10e-4,-2.53881 10e-4,-2.53881 -2.23047,-4.34766 -0.99,0 -1.98,0 -3,0 z"
       fill="#000000"
       id="path62" />
    <path
       d="m 1013,414 c 2.8612,4.23983 2.7767,9.08608 2,14 -2.1875,3.1875 -2.1875,3.1875 -5,5 -2.625,0.0625 -2.625,0.0625 -5,-1 -2.9051,-3.0871 -3.4317,-5.30432 -3.4375,-9.5 0.1119,-3.48815 0.2574,-5.18294 2,-8.25 3.5364,-1.81354 5.6856,-1.36168 9.4375,-0.25 z m -6,2 c -2.2205,1.806 -2.2205,1.806 -2.2656,4.3125 0.01,0.88687 0.01,1.77375 0.016,2.6875 -0.01,0.88687 -0.01,1.77375 -0.016,2.6875 0.045,2.5065 0.045,2.5065 2.2656,4.3125 2.7824,-0.40529 2.7824,-0.40529 5,-2 0.1245,-1.6423 0.1757,-3.29052 0.1875,-4.9375 0.014,-0.8959 0.028,-1.7918 0.043,-2.71484 0,-2.53881 0,-2.53881 -2.2305,-4.34766 -0.99,0 -1.98,0 -3,0 z"
       fill="#000000"
       id="path63" />
    <path
       d="m 998,414 c 2.8612,4.23983 2.7767,9.08608 2,14 -2.1875,3.1875 -2.1875,3.1875 -5,5 -2.625,0.0625 -2.625,0.0625 -5,-1 -2.9051,-3.0871 -3.43174,-5.30432 -3.4375,-9.5 0.11192,-3.48815 0.25735,-5.18294 2,-8.25 3.5364,-1.81354 5.68559,-1.36168 9.4375,-0.25 z m -6,2 c -2.22053,1.806 -2.22053,1.806 -2.26563,4.3125 0.005,0.88687 0.0103,1.77375 0.0156,2.6875 -0.005,0.88687 -0.0103,1.77375 -0.0156,2.6875 0.0451,2.5065 0.0451,2.5065 2.26563,4.3125 2.78238,-0.40529 2.78238,-0.40529 5,-2 0.12455,-1.6423 0.17569,-3.29052 0.1875,-4.9375 0.0142,-0.8959 0.0284,-1.7918 0.043,-2.71484 10e-4,-2.53881 10e-4,-2.53881 -2.23047,-4.34766 -0.99,0 -1.98,0 -3,0 z"
       fill="#000000"
       id="path64" />
    <path
       d="m 1013,315 c 2.8612,4.23983 2.7767,9.08608 2,14 -2.1875,3.1875 -2.1875,3.1875 -5,5 -2.625,0.0625 -2.625,0.0625 -5,-1 -2.9051,-3.0871 -3.4317,-5.30432 -3.4375,-9.5 0.1119,-3.48815 0.2574,-5.18294 2,-8.25 3.5364,-1.81354 5.6856,-1.36168 9.4375,-0.25 z m -6,2 c -2.2205,1.806 -2.2205,1.806 -2.2656,4.3125 0.01,0.88687 0.01,1.77375 0.016,2.6875 -0.01,0.88687 -0.01,1.77375 -0.016,2.6875 0.045,2.5065 0.045,2.5065 2.2656,4.3125 2.7824,-0.40529 2.7824,-0.40529 5,-2 0.1245,-1.6423 0.1757,-3.29052 0.1875,-4.9375 0.014,-0.8959 0.028,-1.7918 0.043,-2.71484 0,-2.53881 0,-2.53881 -2.2305,-4.34766 -0.99,0 -1.98,0 -3,0 z"
       fill="#000000"
       id="path65" />
    <path
       d="m 998,315 c 2.8612,4.23983 2.7767,9.08608 2,14 -2.1875,3.1875 -2.1875,3.1875 -5,5 -2.625,0.0625 -2.625,0.0625 -5,-1 -2.9051,-3.0871 -3.43174,-5.30432 -3.4375,-9.5 0.11192,-3.48815 0.25735,-5.18294 2,-8.25 3.5364,-1.81354 5.68559,-1.36168 9.4375,-0.25 z m -6,2 c -2.22053,1.806 -2.22053,1.806 -2.26563,4.3125 0.005,0.88687 0.0103,1.77375 0.0156,2.6875 -0.005,0.88687 -0.0103,1.77375 -0.0156,2.6875 0.0451,2.5065 0.0451,2.5065 2.26563,4.3125 2.78238,-0.40529 2.78238,-0.40529 5,-2 0.12455,-1.6423 0.17569,-3.29052 0.1875,-4.9375 0.0142,-0.8959 0.0284,-1.7918 0.043,-2.71484 10e-4,-2.53881 10e-4,-2.53881 -2.23047,-4.34766 -0.99,0 -1.98,0 -3,0 z"
       fill="#000000"
       id="path66" />
    <path
       d="m 984,1314 c -1.15173,2.468 -2.04784,4.0478 -4,6 0.96938,0.2888 1.93875,0.5775 2.9375,0.875 C 986,1322 986,1322 987,1324 c 0.57003,6.2704 0.57003,6.2704 -1.5625,9 -3.48893,1.4314 -5.83506,0.934 -9.4375,0 -2.50304,-3.7546 -2.4528,-5.5475 -2,-10 5.01923,-9 5.01923,-9 10,-9 z m -4,9 c -0.99,0.66 -1.98,1.32 -3,2 0.33,1.65 0.66,3.3 1,5 1.65615,0.3822 3.32457,0.714 5,1 1.29634,-1.0665 1.29634,-1.0665 1.0625,-3.5625 -0.0206,-0.8044 -0.0412,-1.6087 -0.0625,-2.4375 -1.32,-0.66 -2.64,-1.32 -4,-2 z"
       fill="#000000"
       id="path67" />
    <path
       d="m 1314,1035 c -1.1517,2.468 -2.0478,4.0478 -4,6 0.9694,0.2888 1.9388,0.5775 2.9375,0.875 C 1316,1043 1316,1043 1317,1045 c 0.57,6.2704 0.57,6.2704 -1.5625,9 -3.4889,1.4314 -5.8351,0.934 -9.4375,0 -2.503,-3.7546 -2.4528,-5.5475 -2,-10 5.0192,-9 5.0192,-9 10,-9 z m -4,9 c -0.99,0.66 -1.98,1.32 -3,2 0.33,1.65 0.66,3.3 1,5 1.6561,0.3822 3.3246,0.714 5,1 1.2963,-1.0665 1.2963,-1.0665 1.0625,-3.5625 -0.021,-0.8044 -0.041,-1.6087 -0.062,-2.4375 -1.32,-0.66 -2.64,-1.32 -4,-2 z"
       fill="#000000"
       id="path68" />
    <path
       d="m 713,1035 c -1.15173,2.468 -2.04784,4.0478 -4,6 0.96938,0.2888 1.93875,0.5775 2.9375,0.875 C 715,1043 715,1043 716,1045 c 0.57003,6.2704 0.57003,6.2704 -1.5625,9 -3.48893,1.4314 -5.83506,0.934 -9.4375,0 -2.50304,-3.7546 -2.4528,-5.5475 -2,-10 5.01923,-9 5.01923,-9 10,-9 z m -4,9 c -0.99,0.66 -1.98,1.32 -3,2 0.33,1.65 0.66,3.3 1,5 1.65615,0.3822 3.32457,0.714 5,1 1.29634,-1.0665 1.29634,-1.0665 1.0625,-3.5625 -0.0206,-0.8044 -0.0412,-1.6087 -0.0625,-2.4375 -1.32,-0.66 -2.64,-1.32 -4,-2 z"
       fill="#000000"
       id="path69" />
    <path
       d="m 983,713 c -1.15173,2.468 -2.04784,4.04784 -4,6 0.96938,0.28875 1.93875,0.5775 2.9375,0.875 C 985,721 985,721 986,723 c 0.57003,6.27036 0.57003,6.27036 -1.5625,9 -3.48893,1.43136 -5.83506,0.93397 -9.4375,0 -2.50304,-3.75457 -2.4528,-5.54746 -2,-10 5.01923,-9 5.01923,-9 10,-9 z m -4,9 c -0.99,0.66 -1.98,1.32 -3,2 0.33,1.65 0.66,3.3 1,5 1.65615,0.38219 3.32457,0.71395 5,1 1.29634,-1.06645 1.29634,-1.06645 1.0625,-3.5625 -0.0206,-0.80438 -0.0412,-1.60875 -0.0625,-2.4375 -1.32,-0.66 -2.64,-1.32 -4,-2 z"
       fill="#000000"
       id="path70" />
    <path
       d="m 981,1714 c 0.99,0 1.98,0 3,0 0,3.96 0,7.92 0,12 0.66,0 1.32,0 2,0 0,0.99 0,1.98 0,3 -0.66,0 -1.32,0 -2,0 0,1.32 0,2.64 0,4 -0.99,0 -1.98,0 -3,0 0,-1.32 0,-2.64 0,-4 -2.97,0 -5.94,0 -9,0 1.04205,-4.1682 2.38477,-6.302 4.875,-9.75 0.69867,-0.9848 1.39734,-1.9697 2.11719,-2.9844 0.66258,-0.7476 1.32515,-1.4953 2.00781,-2.2656 z m -1,6 c -2.37015,2.6548 -2.37015,2.6548 -3,6 1.32,0 2.64,0 4,0 0,-1.98 0,-3.96 0,-6 -0.33,0 -0.66,0 -1,0 z"
       fill="#000000"
       id="path71" />
    <path
       d="m 982,1213 c 0.99,0 1.98,0 3,0 0,3.96 0,7.92 0,12 0.66,0 1.32,0 2,0 0,0.99 0,1.98 0,3 -0.66,0 -1.32,0 -2,0 0,1.32 0,2.64 0,4 -0.99,0 -1.98,0 -3,0 0,-1.32 0,-2.64 0,-4 -2.97,0 -5.94,0 -9,0 1.04205,-4.1682 2.38477,-6.302 4.875,-9.75 0.69867,-0.9848 1.39734,-1.9697 2.11719,-2.9844 0.66258,-0.7476 1.32515,-1.4953 2.00781,-2.2656 z m -1,6 c -2.37015,2.6548 -2.37015,2.6548 -3,6 1.32,0 2.64,0 4,0 0,-1.98 0,-3.96 0,-6 -0.33,0 -0.66,0 -1,0 z"
       fill="#000000"
       id="path72" />
    <path
       d="m 1719,1035 c 0.99,0 1.98,0 3,0 0,3.96 0,7.92 0,12 0.66,0 1.32,0 2,0 0,0.99 0,1.98 0,3 -0.66,0 -1.32,0 -2,0 0,1.32 0,2.64 0,4 -0.99,0 -1.98,0 -3,0 0,-1.32 0,-2.64 0,-4 -2.97,0 -5.94,0 -9,0 1.0421,-4.1682 2.3848,-6.302 4.875,-9.75 0.6987,-0.9848 1.3973,-1.9697 2.1172,-2.9844 0.6626,-0.7476 1.3251,-1.4953 2.0078,-2.2656 z m -1,6 c -2.3702,2.6548 -2.3702,2.6548 -3,6 1.32,0 2.64,0 4,0 0,-1.98 0,-3.96 0,-6 -0.33,0 -0.66,0 -1,0 z"
       fill="#000000"
       id="path73" />
    <path
       d="m 1210,1035 c 0.99,0 1.98,0 3,0 0,3.96 0,7.92 0,12 0.66,0 1.32,0 2,0 0,0.99 0,1.98 0,3 -0.66,0 -1.32,0 -2,0 0,1.32 0,2.64 0,4 -0.99,0 -1.98,0 -3,0 0,-1.32 0,-2.64 0,-4 -2.97,0 -5.94,0 -9,0 1.0421,-4.1682 2.3848,-6.302 4.875,-9.75 0.6987,-0.9848 1.3973,-1.9697 2.1172,-2.9844 0.6626,-0.7476 1.3251,-1.4953 2.0078,-2.2656 z m -1,6 c -2.3702,2.6548 -2.3702,2.6548 -3,6 1.32,0 2.64,0 4,0 0,-1.98 0,-3.96 0,-6 -0.33,0 -0.66,0 -1,0 z"
       fill="#000000"
       id="path74" />
    <path
       d="m 318,1035 c 0.99,0 1.98,0 3,0 0,3.96 0,7.92 0,12 0.66,0 1.32,0 2,0 0,0.99 0,1.98 0,3 -0.66,0 -1.32,0 -2,0 0,1.32 0,2.64 0,4 -0.99,0 -1.98,0 -3,0 0,-1.32 0,-2.64 0,-4 -2.97,0 -5.94,0 -9,0 1.04205,-4.1682 2.38477,-6.302 4.875,-9.75 0.69867,-0.9848 1.39734,-1.9697 2.11719,-2.9844 0.66258,-0.7476 1.32515,-1.4953 2.00781,-2.2656 z m -1,6 c -2.37015,2.6548 -2.37015,2.6548 -3,6 1.32,0 2.64,0 4,0 0,-1.98 0,-3.96 0,-6 -0.33,0 -0.66,0 -1,0 z"
       fill="#000000"
       id="path75" />
    <path
       d="m 980,314 c 0.99,0 1.98,0 3,0 0,3.96 0,7.92 0,12 0.66,0 1.32,0 2,0 0,0.99 0,1.98 0,3 -0.66,0 -1.32,0 -2,0 0,1.32 0,2.64 0,4 -0.99,0 -1.98,0 -3,0 0,-1.32 0,-2.64 0,-4 -2.97,0 -5.94,0 -9,0 1.04205,-4.1682 2.38477,-6.30198 4.875,-9.75 0.69867,-0.98484 1.39734,-1.96969 2.11719,-2.98438 C 978.65477,315.51797 979.31734,314.77031 980,314 Z m -1,6 c -2.37015,2.65484 -2.37015,2.65484 -3,6 1.32,0 2.64,0 4,0 0,-1.98 0,-3.96 0,-6 -0.33,0 -0.66,0 -1,0 z"
       fill="#000000"
       id="path76" />
    <path
       d="M 978.9375,1613.75 C 982,1614 982,1614 985,1616 c 0.875,2.3125 0.875,2.3125 1,5 -1.70531,3.6799 -4.04836,6.2519 -7,9 2.31,0.33 4.62,0.66 7,1 0,0.66 0,1.32 0,2 -4.29,0 -8.58,0 -13,0 0,-0.99 0,-1.98 0,-3 1.93442,-1.8992 4.02442,-3.506 6.15234,-5.1836 2.00007,-1.9662 2.46893,-3.0811 2.84766,-5.8164 -1.65,-0.33 -3.3,-0.66 -5,-1 -0.33,0.99 -0.66,1.98 -1,3 -0.99,0 -1.98,0 -3,0 1.07946,-6.8365 1.07946,-6.8365 5.9375,-7.25 z"
       fill="#000000"
       id="path77" />
    <path
       d="M 979.9375,1113.75 C 983,1114 983,1114 986,1116 c 0.875,2.3125 0.875,2.3125 1,5 -1.70531,3.6799 -4.04836,6.2519 -7,9 2.31,0.33 4.62,0.66 7,1 0,0.66 0,1.32 0,2 -4.29,0 -8.58,0 -13,0 0,-0.99 0,-1.98 0,-3 1.93442,-1.8992 4.02442,-3.506 6.15234,-5.1836 2.00007,-1.9662 2.46893,-3.0811 2.84766,-5.8164 -1.65,-0.33 -3.3,-0.66 -5,-1 -0.33,0.99 -0.66,1.98 -1,3 -0.99,0 -1.98,0 -3,0 1.07946,-6.8365 1.07946,-6.8365 5.9375,-7.25 z"
       fill="#000000"
       id="path78" />
    <path
       d="M 1616.9375,1034.75 C 1620,1035 1620,1035 1623,1037 c 0.875,2.3125 0.875,2.3125 1,5 -1.7053,3.6799 -4.0484,6.2519 -7,9 2.31,0.33 4.62,0.66 7,1 0,0.66 0,1.32 0,2 -4.29,0 -8.58,0 -13,0 0,-0.99 0,-1.98 0,-3 1.9344,-1.8992 4.0244,-3.506 6.1523,-5.1836 2.0001,-1.9662 2.469,-3.0811 2.8477,-5.8164 -1.65,-0.33 -3.3,-0.66 -5,-1 -0.33,0.99 -0.66,1.98 -1,3 -0.99,0 -1.98,0 -3,0 1.0795,-6.8365 1.0795,-6.8365 5.9375,-7.25 z"
       fill="#000000"
       id="path79" />
    <path
       d="M 1107.9375,1034.75 C 1111,1035 1111,1035 1114,1037 c 0.875,2.3125 0.875,2.3125 1,5 -1.7053,3.6799 -4.0484,6.2519 -7,9 2.31,0.33 4.62,0.66 7,1 0,0.66 0,1.32 0,2 -4.29,0 -8.58,0 -13,0 0,-0.99 0,-1.98 0,-3 1.9344,-1.8992 4.0244,-3.506 6.1523,-5.1836 2.0001,-1.9662 2.469,-3.0811 2.8477,-5.8164 -1.65,-0.33 -3.3,-0.66 -5,-1 -0.33,0.99 -0.66,1.98 -1,3 -0.99,0 -1.98,0 -3,0 1.0795,-6.8365 1.0795,-6.8365 5.9375,-7.25 z"
       fill="#000000"
       id="path80" />
    <path
       d="M 908.9375,1034.75 C 912,1035 912,1035 915,1037 c 0.875,2.3125 0.875,2.3125 1,5 -1.70531,3.6799 -4.04836,6.2519 -7,9 2.31,0.33 4.62,0.66 7,1 0,0.66 0,1.32 0,2 -4.29,0 -8.58,0 -13,0 0,-0.99 0,-1.98 0,-3 1.93442,-1.8992 4.02442,-3.506 6.15234,-5.1836 2.00007,-1.9662 2.46893,-3.0811 2.84766,-5.8164 -1.65,-0.33 -3.3,-0.66 -5,-1 -0.33,0.99 -0.66,1.98 -1,3 -0.99,0 -1.98,0 -3,0 1.07946,-6.8365 1.07946,-6.8365 5.9375,-7.25 z"
       fill="#000000"
       id="path81" />
    <path
       d="M 415.9375,1034.75 C 419,1035 419,1035 422,1037 c 0.875,2.3125 0.875,2.3125 1,5 -1.70531,3.6799 -4.04836,6.2519 -7,9 2.31,0.33 4.62,0.66 7,1 0,0.66 0,1.32 0,2 -4.29,0 -8.58,0 -13,0 0,-0.99 0,-1.98 0,-3 1.93442,-1.8992 4.02442,-3.506 6.15234,-5.1836 2.00007,-1.9662 2.46893,-3.0811 2.84766,-5.8164 -1.65,-0.33 -3.3,-0.66 -5,-1 -0.33,0.99 -0.66,1.98 -1,3 -0.99,0 -1.98,0 -3,0 1.07946,-6.8365 1.07946,-6.8365 5.9375,-7.25 z"
       fill="#000000"
       id="path82" />
    <path
       d="M 978.9375,913.75 C 982,914 982,914 985,916 c 0.875,2.3125 0.875,2.3125 1,5 -1.70531,3.67988 -4.04836,6.25192 -7,9 2.31,0.33 4.62,0.66 7,1 0,0.66 0,1.32 0,2 -4.29,0 -8.58,0 -13,0 0,-0.99 0,-1.98 0,-3 1.93442,-1.89917 4.02442,-3.50603 6.15234,-5.18359 2.00007,-1.96624 2.46893,-3.08114 2.84766,-5.81641 -1.65,-0.33 -3.3,-0.66 -5,-1 -0.33,0.99 -0.66,1.98 -1,3 -0.99,0 -1.98,0 -3,0 1.07946,-6.83655 1.07946,-6.83655 5.9375,-7.25 z"
       fill="#000000"
       id="path83" />
    <path
       d="M 977.9375,412.75 C 981,413 981,413 984,415 c 0.875,2.3125 0.875,2.3125 1,5 -1.70531,3.67988 -4.04836,6.25192 -7,9 2.31,0.33 4.62,0.66 7,1 0,0.66 0,1.32 0,2 -4.29,0 -8.58,0 -13,0 0,-0.99 0,-1.98 0,-3 1.93442,-1.89916 4.02442,-3.50603 6.15234,-5.18359 2.00007,-1.96624 2.46893,-3.08114 2.84766,-5.81641 -1.65,-0.33 -3.3,-0.66 -5,-1 -0.33,0.99 -0.66,1.98 -1,3 -0.99,0 -1.98,0 -3,0 1.07946,-6.83655 1.07946,-6.83655 5.9375,-7.25 z"
       fill="#000000"
       id="path84" />
    <path
       d="m 966,1714 c 0,5.61 0,11.22 0,17 1.65,0 3.3,0 5,0 0,0.66 0,1.32 0,2 -3.96,0 -7.92,0 -12,0 0,-0.66 0,-1.32 0,-2 1.65,0 3.3,0 5,0 0,-4.62 0,-9.24 0,-14 -1.65,0 -3.3,0 -5,0 0,-0.66 0,-1.32 0,-2 3,-1 3,-1 7,-1 z"
       fill="#000000"
       id="path85" />
    <path
       d="m 966,1614 c 0,5.61 0,11.22 0,17 1.65,0 3.3,0 5,0 0,0.66 0,1.32 0,2 -3.96,0 -7.92,0 -12,0 0,-0.66 0,-1.32 0,-2 1.65,0 3.3,0 5,0 0,-4.62 0,-9.24 0,-14 -1.65,0 -3.3,0 -5,0 0,-0.66 0,-1.32 0,-2 3,-1 3,-1 7,-1 z"
       fill="#000000"
       id="path86" />
    <path
       d="m 966,1513 c 0,5.61 0,11.22 0,17 1.65,0 3.3,0 5,0 0,0.66 0,1.32 0,2 -3.96,0 -7.92,0 -12,0 0,-0.66 0,-1.32 0,-2 1.65,0 3.3,0 5,0 0,-4.62 0,-9.24 0,-14 -1.65,0 -3.3,0 -5,0 0,-0.66 0,-1.32 0,-2 3,-1 3,-1 7,-1 z"
       fill="#000000"
       id="path87" />
    <path
       d="m 1704,1035 c 0,5.61 0,11.22 0,17 1.65,0 3.3,0 5,0 0,0.66 0,1.32 0,2 -3.96,0 -7.92,0 -12,0 0,-0.66 0,-1.32 0,-2 1.65,0 3.3,0 5,0 0,-4.62 0,-9.24 0,-14 -1.65,0 -3.3,0 -5,0 0,-0.66 0,-1.32 0,-2 3,-1 3,-1 7,-1 z"
       fill="#000000"
       id="path88" />
    <path
       d="m 1604,1035 c 0,5.61 0,11.22 0,17 1.65,0 3.3,0 5,0 0,0.66 0,1.32 0,2 -3.96,0 -7.92,0 -12,0 0,-0.66 0,-1.32 0,-2 1.65,0 3.3,0 5,0 0,-4.62 0,-9.24 0,-14 -1.65,0 -3.3,0 -5,0 0,-0.66 0,-1.32 0,-2 3,-1 3,-1 7,-1 z"
       fill="#000000"
       id="path89" />
    <path
       d="m 1504,1035 c 0,5.61 0,11.22 0,17 1.65,0 3.3,0 5,0 0,0.66 0,1.32 0,2 -3.96,0 -7.92,0 -12,0 0,-0.66 0,-1.32 0,-2 1.65,0 3.3,0 5,0 0,-4.62 0,-9.24 0,-14 -1.65,0 -3.3,0 -5,0 0,-0.66 0,-1.32 0,-2 3,-1 3,-1 7,-1 z"
       fill="#000000"
       id="path90" />
    <path
       d="m 502,1035 c 0,5.61 0,11.22 0,17 1.65,0 3.3,0 5,0 0,0.66 0,1.32 0,2 -3.96,0 -7.92,0 -12,0 0,-0.66 0,-1.32 0,-2 1.65,0 3.3,0 5,0 0,-4.62 0,-9.24 0,-14 -1.65,0 -3.3,0 -5,0 0,-0.66 0,-1.32 0,-2 3,-1 3,-1 7,-1 z"
       fill="#000000"
       id="path91" />
    <path
       d="m 403,1035 c 0,5.61 0,11.22 0,17 1.65,0 3.3,0 5,0 0,0.66 0,1.32 0,2 -3.96,0 -7.92,0 -12,0 0,-0.66 0,-1.32 0,-2 1.65,0 3.3,0 5,0 0,-4.62 0,-9.24 0,-14 -1.65,0 -3.3,0 -5,0 0,-0.66 0,-1.32 0,-2 3,-1 3,-1 7,-1 z"
       fill="#000000"
       id="path92" />
    <path
       d="m 303,1035 c 0,5.61 0,11.22 0,17 1.65,0 3.3,0 5,0 0,0.66 0,1.32 0,2 -3.96,0 -7.92,0 -12,0 0,-0.66 0,-1.32 0,-2 1.65,0 3.3,0 5,0 0,-4.62 0,-9.24 0,-14 -1.65,0 -3.3,0 -5,0 0,-0.66 0,-1.32 0,-2 3,-1 3,-1 7,-1 z"
       fill="#000000"
       id="path93" />
    <path
       d="m 965,513 c 0,5.61 0,11.22 0,17 1.65,0 3.3,0 5,0 0,0.66 0,1.32 0,2 -3.96,0 -7.92,0 -12,0 0,-0.66 0,-1.32 0,-2 1.65,0 3.3,0 5,0 0,-4.62 0,-9.24 0,-14 -1.65,0 -3.3,0 -5,0 0,-0.66 0,-1.32 0,-2 3,-1 3,-1 7,-1 z"
       fill="#000000"
       id="path94" />
    <path
       d="m 965,413 c 0,5.61 0,11.22 0,17 1.65,0 3.3,0 5,0 0,0.66 0,1.32 0,2 -3.96,0 -7.92,0 -12,0 0,-0.66 0,-1.32 0,-2 1.65,0 3.3,0 5,0 0,-4.62 0,-9.24 0,-14 -1.65,0 -3.3,0 -5,0 0,-0.66 0,-1.32 0,-2 3,-1 3,-1 7,-1 z"
       fill="#000000"
       id="path95" />
    <path
       d="m 965,314 c 0,5.61 0,11.22 0,17 1.65,0 3.3,0 5,0 0,0.66 0,1.32 0,2 -3.96,0 -7.92,0 -12,0 0,-0.66 0,-1.32 0,-2 1.65,0 3.3,0 5,0 0,-4.62 0,-9.24 0,-14 -1.65,0 -3.3,0 -5,0 0,-0.66 0,-1.32 0,-2 3,-1 3,-1 7,-1 z"
       fill="#000000"
       id="path96" />
    <path
       d="m 893,1046 c 2.97,0 5.94,0 9,0 0,0.99 0,1.98 0,3 -2.97,0 -5.94,0 -9,0 0,-0.99 0,-1.98 0,-3 z"
       fill="#000000"
       id="path97" />
    <path
       d="m 693,1046 c 2.97,0 5.94,0 9,0 0,0.99 0,1.98 0,3 -2.97,0 -5.94,0 -9,0 0,-0.99 0,-1.98 0,-3 z"
       fill="#000000"
       id="path98" />
    <path
       d="m 593,1046 c 2.97,0 5.94,0 9,0 0,0.99 0,1.98 0,3 -2.97,0 -5.94,0 -9,0 0,-0.99 0,-1.98 0,-3 z"
       fill="#000000"
       id="path99" />
    <path
       d="m 484,1046 c 2.97,0 5.94,0 9,0 0,0.99 0,1.98 0,3 -2.97,0 -5.94,0 -9,0 0,-0.99 0,-1.98 0,-3 z"
       fill="#000000"
       id="path100" />
    <path
       d="m 385,1046 c 2.97,0 5.94,0 9,0 0,0.99 0,1.98 0,3 -2.97,0 -5.94,0 -9,0 0,-0.99 0,-1.98 0,-3 z"
       fill="#000000"
       id="path101" />
    <path
       d="m 284,1046 c 2.97,0 5.94,0 9,0 0,0.99 0,1.98 0,3 -2.97,0 -5.94,0 -9,0 0,-0.99 0,-1.98 0,-3 z"
       fill="#000000"
       id="path102" />
    <path
       d="m 963,925 c 2.97,0 5.94,0 9,0 0,0.99 0,1.98 0,3 -2.97,0 -5.94,0 -9,0 0,-0.99 0,-1.98 0,-3 z"
       fill="#000000"
       id="path103" />
    <path
       d="m 963,724 c 2.97,0 5.94,0 9,0 0,0.99 0,1.98 0,3 -2.97,0 -5.94,0 -9,0 0,-0.99 0,-1.98 0,-3 z"
       fill="#000000"
       id="path104" />
    <path
       d="m 963,624 c 2.97,0 5.94,0 9,0 0,0.99 0,1.98 0,3 -2.97,0 -5.94,0 -9,0 0,-0.99 0,-1.98 0,-3 z"
       fill="#000000"
       id="path105" />
    <path
       d="m 947,524 c 2.97,0 5.94,0 9,0 0,0.99 0,1.98 0,3 -2.97,0 -5.94,0 -9,0 0,-0.99 0,-1.98 0,-3 z"
       fill="#000000"
       id="path106" />
    <path
       d="m 947,424 c 2.97,0 5.94,0 9,0 0,0.99 0,1.98 0,3 -2.97,0 -5.94,0 -9,0 0,-0.99 0,-1.98 0,-3 z"
       fill="#000000"
       id="path107" />
    <path
       d="m 947,325 c 2.97,0 5.94,0 9,0 0,0.99 0,1.98 0,3 -2.97,0 -5.94,0 -9,0 0,-0.99 0,-1.98 0,-3 z"
       fill="#000000"
       id="path108" />
  </g>
</svg>
